<svg width="40" height="40" viewBox="0 0 40 40" fill="none" xmlns="http://www.w3.org/2000/svg">
<path d="M31.6667 15C31.6667 18.4 30.2123 21.4603 27.8917 23.5927C25.8145 25.5014 23.0434 26.6667 20 26.6667C17.1626 26.6667 14.5618 25.6538 12.5394 23.9698C9.96925 21.8298 8.33334 18.606 8.33334 15C8.33334 8.55672 13.5567 3.33337 20 3.33337C26.4433 3.33337 31.6667 8.55672 31.6667 15Z" fill="#DD7143" fill-opacity="0.3"/>
<path d="M27.8917 23.5927C30.2123 21.4603 31.6667 18.4 31.6667 15C31.6667 8.55672 26.4433 3.33337 20 3.33337C13.5567 3.33337 8.33334 8.55672 8.33334 15C8.33334 18.606 9.96925 21.8298 12.5394 23.9698M27.8917 23.5927C25.8145 25.5014 23.0433 26.6667 20 26.6667C17.1626 26.6667 14.5618 25.6538 12.5394 23.9698M27.8917 23.5927L30.8333 36.6667L30.2357 36.2989C23.9972 32.4599 16.0948 32.6035 10 36.6667L12.5394 23.9698" stroke="#DD7143" stroke-width="2" stroke-linecap="round" stroke-linejoin="round"/>
</svg>
