<svg width="40" height="40" viewBox="0 0 40 40" fill="none" xmlns="http://www.w3.org/2000/svg">
<path d="M35 20C35 28.2843 28.2843 35 20 35C11.7157 35 5 28.2843 5 20C5 11.7157 11.7157 5 20 5C28.2843 5 35 11.7157 35 20Z" fill="#DD7143" fill-opacity="0.3"/>
<path d="M14.1667 20.8539L18.0687 24.7517C19.9454 21.4701 22.5426 18.6574 25.6645 16.5256L25.8333 16.4103M35 20C35 28.2843 28.2843 35 20 35C11.7157 35 5 28.2843 5 20C5 11.7157 11.7157 5 20 5C28.2843 5 35 11.7157 35 20Z" stroke="#DD7143" stroke-width="2" stroke-linecap="round" stroke-linejoin="round"/>
</svg>
