<svg width="40" height="40" viewBox="0 0 40 40" fill="none" xmlns="http://www.w3.org/2000/svg">
<path d="M20 8L20 20L22.7778 20C25.846 20 28.3333 22.6863 28.3333 26C28.3333 29.3137 25.846 32 22.7778 32H20V20H17.2222C14.154 20 11.6667 17.3137 11.6667 14C11.6667 10.6863 14.154 8 17.2222 8H20Z" fill="#DD7143" fill-opacity="0.3"/>
<path d="M20 5V35M28.3333 12.5C27.7166 9.91216 25.5415 8 22.9528 8H20H17.2222C14.154 8 11.6667 10.6863 11.6667 14C11.6667 17.3137 14.154 20 17.2222 20H20L22.7778 20C25.846 20 28.3333 22.6863 28.3333 26C28.3333 29.3137 25.846 32 22.7778 32H20H17.0472C14.4585 32 12.2834 30.0878 11.6667 27.5" stroke="#DD7143" stroke-width="2" stroke-linecap="round" stroke-linejoin="round"/>
</svg>
