<svg width="16" height="16" viewBox="0 0 16 16" fill="none" xmlns="http://www.w3.org/2000/svg">
<path d="M2 4.13333C2 3.3866 2 3.01323 2.14532 2.72801C2.27316 2.47713 2.47713 2.27316 2.72801 2.14532C3.01323 2 3.3866 2 4.13333 2H4.53333C5.28007 2 5.65344 2 5.93865 2.14532C6.18954 2.27316 6.39351 2.47713 6.52134 2.72801C6.66667 3.01323 6.66667 3.3866 6.66667 4.13333V4.53333C6.66667 5.28007 6.66667 5.65344 6.52134 5.93865C6.39351 6.18954 6.18954 6.39351 5.93865 6.52134C5.65344 6.66667 5.28007 6.66667 4.53333 6.66667H4.13333C3.3866 6.66667 3.01323 6.66667 2.72801 6.52134C2.47713 6.39351 2.27316 6.18954 2.14532 5.93865C2 5.65344 2 5.28007 2 4.53333V4.13333Z" stroke="#133629" stroke-width="2" stroke-linecap="round" stroke-linejoin="round"/>
<path d="M2 11.4667C2 10.7199 2 10.3466 2.14532 10.0613C2.27316 9.81046 2.47713 9.60649 2.72801 9.47866C3.01323 9.33333 3.3866 9.33333 4.13333 9.33333H4.53333C5.28007 9.33333 5.65344 9.33333 5.93865 9.47866C6.18954 9.60649 6.39351 9.81046 6.52134 10.0613C6.66667 10.3466 6.66667 10.7199 6.66667 11.4667V11.8667C6.66667 12.6134 6.66667 12.9868 6.52134 13.272C6.39351 13.5229 6.18954 13.7268 5.93865 13.8547C5.65344 14 5.28007 14 4.53333 14H4.13333C3.3866 14 3.01323 14 2.72801 13.8547C2.47713 13.7268 2.27316 13.5229 2.14532 13.272C2 12.9868 2 12.6134 2 11.8667V11.4667Z" stroke="#133629" stroke-width="2" stroke-linecap="round" stroke-linejoin="round"/>
<path d="M9.33333 4.13333C9.33333 3.3866 9.33333 3.01323 9.47866 2.72801C9.60649 2.47713 9.81046 2.27316 10.0613 2.14532C10.3466 2 10.7199 2 11.4667 2H11.8667C12.6134 2 12.9868 2 13.272 2.14532C13.5229 2.27316 13.7268 2.47713 13.8547 2.72801C14 3.01323 14 3.3866 14 4.13333V4.53333C14 5.28007 14 5.65344 13.8547 5.93865C13.7268 6.18954 13.5229 6.39351 13.272 6.52134C12.9868 6.66667 12.6134 6.66667 11.8667 6.66667H11.4667C10.7199 6.66667 10.3466 6.66667 10.0613 6.52134C9.81046 6.39351 9.60649 6.18954 9.47866 5.93865C9.33333 5.65344 9.33333 5.28007 9.33333 4.53333V4.13333Z" stroke="#133629" stroke-width="2" stroke-linecap="round" stroke-linejoin="round"/>
<path d="M9.33333 11.4667C9.33333 10.7199 9.33333 10.3466 9.47866 10.0613C9.60649 9.81046 9.81046 9.60649 10.0613 9.47866C10.3466 9.33333 10.7199 9.33333 11.4667 9.33333H11.8667C12.6134 9.33333 12.9868 9.33333 13.272 9.47866C13.5229 9.60649 13.7268 9.81046 13.8547 10.0613C14 10.3466 14 10.7199 14 11.4667V11.8667C14 12.6134 14 12.9868 13.8547 13.272C13.7268 13.5229 13.5229 13.7268 13.272 13.8547C12.9868 14 12.6134 14 11.8667 14H11.4667C10.7199 14 10.3466 14 10.0613 13.8547C9.81046 13.7268 9.60649 13.5229 9.47866 13.272C9.33333 12.9868 9.33333 12.6134 9.33333 11.8667V11.4667Z" stroke="#133629" stroke-width="2" stroke-linecap="round" stroke-linejoin="round"/>
</svg>
