<svg width="58" height="14" viewBox="0 0 58 14" fill="none" xmlns="http://www.w3.org/2000/svg">
<path d="M0.642861 12.7704V11.671C0.958597 11.671 1.18412 11.6089 1.31944 11.4849C1.46603 11.3609 1.55624 11.1861 1.59007 10.9606C1.63517 10.7238 1.65773 10.4588 1.65773 10.1656V5.70017L0.422974 5.71708V4.31318H1.65773C1.72539 2.75705 2.08623 1.65198 2.74025 0.997952C3.39428 0.332651 4.38095 0 5.70028 0C6.68131 0 7.46502 0.118401 8.05138 0.355204C8.63775 0.592005 9.06061 0.868274 9.31997 1.18401C9.57932 1.48847 9.70336 1.74782 9.69208 1.96207C9.69208 2.21015 9.60751 2.46387 9.43837 2.72322C9.26922 2.9713 9.00987 3.10098 8.6603 3.11226C8.34457 3.12353 8.08521 3.03332 7.88224 2.84163C7.67927 2.63865 7.57778 2.39057 7.57778 2.09739C7.57778 2.04101 7.58342 1.98463 7.59469 1.92825C7.60597 1.86059 7.61725 1.79857 7.62852 1.74219C7.58342 1.68581 7.43683 1.58432 7.18875 1.43773C6.95195 1.27986 6.56855 1.20093 6.03857 1.20093C5.40709 1.20093 4.94477 1.33624 4.65158 1.60687C4.36968 1.86623 4.18925 2.20452 4.11032 2.62174C4.04266 3.02768 4.00883 3.45618 4.00883 3.90723V4.31318H5.41273C5.93144 4.31318 6.43887 4.31318 6.93503 4.31318C7.43119 4.31318 7.85405 4.30191 8.20361 4.27935C8.55318 4.2568 8.76743 4.21169 8.84636 4.14404H9.75974V10.0472C9.75974 10.205 9.7541 10.4306 9.74283 10.7238C9.73155 11.0057 9.71464 11.2763 9.69208 11.5356C9.88378 11.5131 10.0868 11.5018 10.301 11.5018C10.5153 11.4905 10.6788 11.4849 10.7915 11.4849V12.7704H6.35994V11.671C6.67568 11.671 6.9012 11.6089 7.03652 11.4849C7.18311 11.3609 7.27332 11.1861 7.30715 10.9606C7.34098 10.7238 7.35789 10.4588 7.35789 10.1656V7.03641C7.35789 6.83343 7.36353 6.60227 7.37481 6.34291C7.38608 6.07228 7.403 5.81293 7.42555 5.56485L4.02575 5.64942L4.04266 10.0133C4.04266 10.1712 4.03702 10.4024 4.02575 10.7068C4.01447 11 3.99756 11.2763 3.975 11.5356C4.1667 11.5131 4.38095 11.5018 4.61775 11.5018C4.86583 11.4905 5.04625 11.4849 5.15902 11.4849V12.7704H0.642861Z" fill="#133629"/>
<path d="M11.5525 12.7704V11.671C11.8683 11.671 12.0938 11.6089 12.2291 11.4849C12.3644 11.3609 12.449 11.1861 12.4828 10.9606C12.5279 10.7238 12.5505 10.4588 12.5505 10.1656V7.32395C12.5505 7.12098 12.5561 6.89545 12.5674 6.64737C12.5787 6.38802 12.5956 6.1343 12.6181 5.88622C12.4377 5.8975 12.2235 5.90878 11.9754 5.92005C11.7386 5.92005 11.5582 5.92569 11.4341 5.93697V4.65147C11.9528 4.65147 12.3926 4.62328 12.7535 4.5669C13.1143 4.51052 13.3962 4.44286 13.5992 4.36392C13.8134 4.28499 13.96 4.21169 14.039 4.14404H14.8678C14.8903 4.29063 14.9016 4.39775 14.9016 4.46541C14.9016 4.53307 14.9016 4.60073 14.9016 4.66838C14.9129 4.72477 14.9354 4.83189 14.9693 4.98976C15.1948 4.80934 15.4541 4.65147 15.7473 4.51615C16.0405 4.36956 16.3337 4.2568 16.6269 4.17787C16.9201 4.08766 17.1794 4.04255 17.4049 4.04255C18.4424 4.04255 19.1753 4.34137 19.6038 4.93902C20.0436 5.52538 20.2635 6.47259 20.2635 7.78064V10.0472C20.2635 10.205 20.2578 10.4306 20.2466 10.7238C20.2353 11.0057 20.2184 11.2763 20.1958 11.5356C20.3875 11.5131 20.5905 11.5018 20.8047 11.5018C21.019 11.4905 21.1825 11.4849 21.2953 11.4849V12.7704H16.8637V11.671C17.1794 11.671 17.4049 11.6089 17.5402 11.4849C17.6868 11.3609 17.7771 11.1861 17.8109 10.9606C17.856 10.7238 17.8785 10.4588 17.8785 10.1656L17.8616 7.76373C17.8616 7.03077 17.7545 6.48951 17.5402 6.13994C17.3373 5.7791 16.9877 5.59868 16.4916 5.59868C16.2096 5.59868 15.9277 5.6607 15.6458 5.78474C15.3752 5.90878 15.144 6.05537 14.9523 6.22451C14.9523 6.38238 14.9523 6.54589 14.9523 6.71503C14.9523 6.8729 14.9523 7.03077 14.9523 7.18864V10.0472C14.9523 10.205 14.9467 10.4306 14.9354 10.7238C14.9242 11.0057 14.9072 11.2763 14.8847 11.5356C15.0651 11.5131 15.2624 11.5018 15.4767 11.5018C15.7022 11.4905 15.8714 11.4849 15.9841 11.4849V12.7704H11.5525Z" fill="#133629"/>
<path d="M26.6697 12.7704C26.6471 12.6125 26.6302 12.4829 26.6189 12.3814C26.6189 12.2686 26.6133 12.1389 26.602 11.9923C26.2186 12.3757 25.8127 12.6464 25.3842 12.8042C24.9557 12.9621 24.5216 13.041 24.0818 13.041C23.3601 13.041 22.7963 12.8268 22.3903 12.3983C21.9844 11.9698 21.7814 11.4342 21.7814 10.7914C21.7814 10.2501 21.9167 9.78782 22.1874 9.40443C22.4693 9.02103 22.8357 8.71093 23.2868 8.47413C23.7491 8.22605 24.2566 8.03999 24.8091 7.91596C25.3729 7.78064 25.9367 7.70171 26.5005 7.67915V6.7996C26.5005 6.50642 26.4611 6.24143 26.3821 6.00462C26.3145 5.76782 26.1904 5.58176 26.01 5.44645C25.8409 5.31113 25.5984 5.24911 25.2827 5.26039C25.0684 5.27167 24.8598 5.31677 24.6569 5.39571C24.4539 5.47464 24.2791 5.5874 24.1325 5.73399C24.2227 5.83548 24.2791 5.94824 24.3017 6.07228C24.3242 6.18505 24.3355 6.28653 24.3355 6.37674C24.3355 6.60227 24.2453 6.83907 24.0649 7.08715C23.8844 7.32395 23.5969 7.43671 23.2022 7.42544C22.8639 7.41416 22.6046 7.29576 22.4242 7.07023C22.2437 6.84471 22.1535 6.57972 22.1535 6.27526C22.1535 5.8242 22.3114 5.43517 22.6271 5.10816C22.9541 4.76987 23.3883 4.51052 23.9295 4.3301C24.4708 4.1384 25.0685 4.04255 25.7225 4.04255C26.7148 4.04255 27.4816 4.3019 28.0228 4.82061C28.5754 5.32805 28.8516 6.14558 28.8516 7.27321C28.8516 7.6566 28.8516 7.98361 28.8516 8.25424C28.8516 8.52488 28.846 8.79551 28.8347 9.06614C28.8347 9.33677 28.8347 9.66378 28.8347 10.0472C28.8347 10.205 28.8291 10.4306 28.8178 10.7238C28.8065 11.0057 28.7896 11.2763 28.7671 11.5356C28.9588 11.5131 29.1617 11.5018 29.376 11.5018C29.5902 11.4905 29.7537 11.4849 29.8665 11.4849V12.7704H26.6697ZM26.4836 8.88008C26.1679 8.91391 25.8691 8.97029 25.5872 9.04922C25.3053 9.12816 25.0572 9.23528 24.8429 9.3706C24.64 9.50591 24.4764 9.66942 24.3524 9.86112C24.2396 10.0528 24.1833 10.2671 24.1833 10.5039C24.1945 10.8196 24.296 11.0451 24.4877 11.1804C24.6794 11.3158 24.8993 11.3834 25.1474 11.3834C25.4067 11.3834 25.6492 11.327 25.8747 11.2143C26.1002 11.1015 26.3032 10.9549 26.4836 10.7745C26.4836 10.6617 26.4836 10.5546 26.4836 10.4531C26.4836 10.3404 26.4836 10.2276 26.4836 10.1148C26.4836 9.91186 26.4836 9.70889 26.4836 9.50591C26.4836 9.29166 26.4836 9.08305 26.4836 8.88008Z" fill="#133629"/>
<path d="M30.4993 12.7704V11.671C30.8151 11.671 31.0406 11.6089 31.1759 11.4849C31.3112 11.3609 31.3958 11.1861 31.4296 10.9606C31.4747 10.7238 31.4973 10.4588 31.4973 10.1656V7.32395C31.4973 7.12098 31.5029 6.89545 31.5142 6.64737C31.5255 6.38802 31.5424 6.1343 31.565 5.88622C31.3845 5.8975 31.1703 5.90878 30.9222 5.92005C30.6854 5.92005 30.505 5.92569 30.3809 5.93697V4.65147C30.8997 4.65147 31.3394 4.62328 31.7003 4.5669C32.0611 4.51052 32.343 4.44286 32.546 4.36392C32.7602 4.28499 32.9068 4.21169 32.9858 4.14404H33.8146C33.8371 4.29063 33.8484 4.39775 33.8484 4.46541C33.8484 4.53307 33.8484 4.60073 33.8484 4.66838C33.8597 4.72477 33.8822 4.83189 33.9161 4.98976C34.1416 4.80934 34.4009 4.65147 34.6941 4.51615C34.9873 4.36956 35.2805 4.2568 35.5737 4.17787C35.8669 4.08766 36.1262 4.04255 36.3517 4.04255C37.3892 4.04255 38.1221 4.34137 38.5506 4.93902C38.9904 5.52538 39.2103 6.47259 39.2103 7.78064V10.0472C39.2103 10.205 39.2046 10.4306 39.1934 10.7238C39.1821 11.0057 39.1652 11.2763 39.1426 11.5356C39.3343 11.5131 39.5373 11.5018 39.7515 11.5018C39.9658 11.4905 40.1293 11.4849 40.2421 11.4849V12.7704H35.8105V11.671C36.1262 11.671 36.3517 11.6089 36.4871 11.4849C36.6336 11.3609 36.7239 11.1861 36.7577 10.9606C36.8028 10.7238 36.8253 10.4588 36.8253 10.1656L36.8084 7.76373C36.8084 7.03077 36.7013 6.48951 36.4871 6.13994C36.2841 5.7791 35.9345 5.59868 35.4384 5.59868C35.1565 5.59868 34.8746 5.6607 34.5926 5.78474C34.322 5.90878 34.0908 6.05537 33.8992 6.22451C33.8992 6.38238 33.8992 6.54589 33.8992 6.71503C33.8992 6.8729 33.8992 7.03077 33.8992 7.18864V10.0472C33.8992 10.205 33.8935 10.4306 33.8822 10.7238C33.871 11.0057 33.854 11.2763 33.8315 11.5356C34.0119 11.5131 34.2092 11.5018 34.4235 11.5018C34.649 11.4905 34.8182 11.4849 34.9309 11.4849V12.7704H30.4993Z" fill="#133629"/>
<path d="M44.9061 13.041C44.1506 13.041 43.4571 12.8719 42.8256 12.5336C42.1941 12.1953 41.6867 11.7048 41.3033 11.062C40.9312 10.4193 40.7451 9.64123 40.7451 8.72785C40.7451 8.0851 40.8523 7.48182 41.0665 6.918C41.2808 6.35419 41.5796 5.85803 41.963 5.42953C42.3576 5.00103 42.82 4.66275 43.35 4.41467C43.8912 4.16659 44.4889 4.04255 45.1429 4.04255C45.8646 4.04255 46.4622 4.15531 46.9358 4.38084C47.4207 4.59509 47.7815 4.88263 48.0183 5.24348C48.2664 5.59304 48.3905 5.96516 48.3905 6.35983C48.3905 6.68684 48.289 6.98002 48.086 7.23938C47.8943 7.48746 47.618 7.61713 47.2572 7.62841C46.8287 7.63969 46.5299 7.52129 46.3607 7.27321C46.1916 7.01385 46.107 6.76577 46.107 6.52897C46.107 6.42749 46.1239 6.30908 46.1578 6.17377C46.1916 6.02718 46.2423 5.8975 46.31 5.78474C46.2311 5.61559 46.1126 5.49155 45.9548 5.41262C45.7969 5.33369 45.6334 5.28294 45.4643 5.26039C45.3064 5.22656 45.1767 5.21528 45.0752 5.22656C44.534 5.26039 44.0886 5.53102 43.739 6.03845C43.3894 6.54589 43.2146 7.27885 43.2146 8.23733C43.2146 8.80114 43.2823 9.33113 43.4176 9.82729C43.5642 10.3122 43.801 10.7125 44.128 11.0282C44.455 11.3439 44.8948 11.5131 45.4473 11.5356C45.921 11.5469 46.3833 11.4342 46.8343 11.1974C47.2854 10.9606 47.6688 10.6392 47.9845 10.2332L48.7626 10.9944C48.3566 11.5582 47.9338 11.9867 47.494 12.2799C47.0542 12.5731 46.6144 12.7704 46.1747 12.8719C45.7462 12.9846 45.3233 13.041 44.9061 13.041Z" fill="#133629"/>
<path d="M53.3393 13.041C52.5161 13.041 51.7888 12.8606 51.1573 12.4998C50.5258 12.1277 50.0353 11.6089 49.6857 10.9436C49.3362 10.2671 49.1614 9.47208 49.1614 8.5587C49.1614 7.76936 49.3362 7.03077 49.6857 6.34291C50.0353 5.65506 50.5258 5.10252 51.1573 4.6853C51.8 4.2568 52.5443 4.04255 53.39 4.04255C53.8636 4.04255 54.3259 4.11021 54.777 4.24552C55.228 4.36956 55.634 4.58945 55.9948 4.90519C56.3669 5.22092 56.6601 5.64942 56.8744 6.19068C57.0999 6.73195 57.207 7.40852 57.1957 8.22042L51.6478 8.3219C51.6478 8.93082 51.7211 9.47772 51.8677 9.9626C52.0256 10.4475 52.2793 10.8309 52.6288 11.1128C52.9784 11.3947 53.4464 11.5356 54.0327 11.5356C54.2583 11.5356 54.512 11.4962 54.7939 11.4172C55.0871 11.3383 55.3803 11.2086 55.6734 11.0282C55.9779 10.8365 56.2598 10.5828 56.5192 10.2671L57.2803 10.9775C56.8744 11.5526 56.4402 11.9923 55.9779 12.2968C55.5156 12.59 55.0533 12.7873 54.5909 12.8888C54.1399 12.9903 53.7226 13.041 53.3393 13.041ZM51.7493 7.13789H54.8616C54.8503 6.66429 54.7826 6.29217 54.6586 6.02154C54.5458 5.73963 54.3879 5.53666 54.185 5.41262C53.982 5.28858 53.7452 5.22656 53.4746 5.22656C52.9784 5.22656 52.5894 5.40698 52.3075 5.76782C52.0256 6.11739 51.8395 6.57408 51.7493 7.13789Z" fill="#133629"/>
</svg>
