<svg width="58" height="14" viewBox="0 0 58 14" fill="none" xmlns="http://www.w3.org/2000/svg">
<path d="M0.642983 12.7704V11.671C0.958719 11.671 1.18425 11.6089 1.31956 11.4849C1.46615 11.3609 1.55636 11.1861 1.59019 10.9606C1.6353 10.7238 1.65785 10.4588 1.65785 10.1656V5.70017L0.423096 5.71708V4.31318H1.65785C1.72551 2.75705 2.08635 1.65198 2.74037 0.997952C3.3944 0.332651 4.38107 0 5.7004 0C6.68144 0 7.46514 0.118401 8.05151 0.355204C8.63787 0.592005 9.06073 0.868274 9.32009 1.18401C9.57944 1.48847 9.70348 1.74782 9.69221 1.96207C9.69221 2.21015 9.60763 2.46387 9.43849 2.72322C9.26935 2.9713 9.00999 3.10098 8.66043 3.11226C8.34469 3.12353 8.08533 3.03332 7.88236 2.84163C7.67939 2.63865 7.5779 2.39057 7.5779 2.09739C7.5779 2.04101 7.58354 1.98463 7.59482 1.92825C7.60609 1.86059 7.61737 1.79857 7.62865 1.74219C7.58354 1.68581 7.43695 1.58432 7.18887 1.43773C6.95207 1.27986 6.56867 1.20093 6.03869 1.20093C5.40722 1.20093 4.94489 1.33624 4.6517 1.60687C4.3698 1.86623 4.18938 2.20452 4.11044 2.62174C4.04278 3.02768 4.00896 3.45618 4.00896 3.90723V4.31318H5.41285C5.93156 4.31318 6.439 4.31318 6.93515 4.31318C7.43131 4.31318 7.85417 4.30191 8.20374 4.27935C8.5533 4.2568 8.76755 4.21169 8.84648 4.14404H9.75986V10.0472C9.75986 10.205 9.75423 10.4306 9.74295 10.7238C9.73167 11.0057 9.71476 11.2763 9.69221 11.5356C9.8839 11.5131 10.0869 11.5018 10.3011 11.5018C10.5154 11.4905 10.6789 11.4849 10.7916 11.4849V12.7704H6.36006V11.671C6.6758 11.671 6.90132 11.6089 7.03664 11.4849C7.18323 11.3609 7.27344 11.1861 7.30727 10.9606C7.3411 10.7238 7.35801 10.4588 7.35801 10.1656V7.03641C7.35801 6.83343 7.36365 6.60227 7.37493 6.34291C7.3862 6.07228 7.40312 5.81293 7.42567 5.56485L4.02587 5.64942L4.04278 10.0133C4.04278 10.1712 4.03715 10.4024 4.02587 10.7068C4.01459 11 3.99768 11.2763 3.97513 11.5356C4.16682 11.5131 4.38107 11.5018 4.61788 11.5018C4.86595 11.4905 5.04637 11.4849 5.15914 11.4849V12.7704H0.642983Z" fill="#133629"/>
<path d="M11.5527 12.7704V11.671C11.8684 11.671 12.0939 11.6089 12.2292 11.4849C12.3646 11.3609 12.4491 11.1861 12.483 10.9606C12.5281 10.7238 12.5506 10.4588 12.5506 10.1656V7.32395C12.5506 7.12098 12.5563 6.89545 12.5675 6.64737C12.5788 6.38802 12.5957 6.1343 12.6183 5.88622C12.4378 5.8975 12.2236 5.90878 11.9755 5.92005C11.7387 5.92005 11.5583 5.92569 11.4343 5.93697V4.65147C11.953 4.65147 12.3927 4.62328 12.7536 4.5669C13.1144 4.51052 13.3963 4.44286 13.5993 4.36392C13.8136 4.28499 13.9601 4.21169 14.0391 4.14404H14.8679C14.8904 4.29063 14.9017 4.39775 14.9017 4.46541C14.9017 4.53307 14.9017 4.60073 14.9017 4.66838C14.913 4.72477 14.9355 4.83189 14.9694 4.98976C15.1949 4.80934 15.4543 4.65147 15.7474 4.51615C16.0406 4.36956 16.3338 4.2568 16.627 4.17787C16.9202 4.08766 17.1795 4.04255 17.4051 4.04255C18.4425 4.04255 19.1754 4.34137 19.6039 4.93902C20.0437 5.52538 20.2636 6.47259 20.2636 7.78064V10.0472C20.2636 10.205 20.258 10.4306 20.2467 10.7238C20.2354 11.0057 20.2185 11.2763 20.1959 11.5356C20.3876 11.5131 20.5906 11.5018 20.8049 11.5018C21.0191 11.4905 21.1826 11.4849 21.2954 11.4849V12.7704H16.8638V11.671C17.1795 11.671 17.4051 11.6089 17.5404 11.4849C17.687 11.3609 17.7772 11.1861 17.811 10.9606C17.8561 10.7238 17.8787 10.4588 17.8787 10.1656L17.8617 7.76373C17.8617 7.03077 17.7546 6.48951 17.5404 6.13994C17.3374 5.7791 16.9878 5.59868 16.4917 5.59868C16.2098 5.59868 15.9279 5.6607 15.646 5.78474C15.3753 5.90878 15.1442 6.05537 14.9525 6.22451C14.9525 6.38238 14.9525 6.54589 14.9525 6.71503C14.9525 6.8729 14.9525 7.03077 14.9525 7.18864V10.0472C14.9525 10.205 14.9468 10.4306 14.9355 10.7238C14.9243 11.0057 14.9074 11.2763 14.8848 11.5356C15.0652 11.5131 15.2626 11.5018 15.4768 11.5018C15.7023 11.4905 15.8715 11.4849 15.9842 11.4849V12.7704H11.5527Z" fill="#133629"/>
<path d="M26.6698 12.7704C26.6473 12.6125 26.6303 12.4829 26.6191 12.3814C26.6191 12.2686 26.6134 12.1389 26.6021 11.9923C26.2188 12.3757 25.8128 12.6464 25.3843 12.8042C24.9558 12.9621 24.5217 13.041 24.0819 13.041C23.3602 13.041 22.7964 12.8268 22.3905 12.3983C21.9845 11.9698 21.7815 11.4342 21.7815 10.7914C21.7815 10.2501 21.9168 9.78782 22.1875 9.40443C22.4694 9.02103 22.8359 8.71093 23.2869 8.47413C23.7492 8.22605 24.2567 8.04 24.8092 7.91596C25.373 7.78064 25.9368 7.70171 26.5007 7.67915V6.7996C26.5007 6.50642 26.4612 6.24143 26.3823 6.00462C26.3146 5.76782 26.1906 5.58176 26.0101 5.44645C25.841 5.31113 25.5986 5.24911 25.2828 5.26039C25.0686 5.27167 24.86 5.31677 24.657 5.39571C24.454 5.47464 24.2792 5.5874 24.1326 5.73399C24.2229 5.83548 24.2792 5.94824 24.3018 6.07228C24.3243 6.18505 24.3356 6.28653 24.3356 6.37674C24.3356 6.60227 24.2454 6.83907 24.065 7.08715C23.8846 7.32395 23.597 7.43671 23.2023 7.42544C22.8641 7.41416 22.6047 7.29576 22.4243 7.07023C22.2439 6.84471 22.1537 6.57972 22.1537 6.27526C22.1537 5.8242 22.3115 5.43517 22.6273 5.10816C22.9543 4.76987 23.3884 4.51052 23.9297 4.3301C24.4709 4.1384 25.0686 4.04255 25.7226 4.04255C26.7149 4.04255 27.4817 4.30191 28.023 4.82061C28.5755 5.32805 28.8518 6.14558 28.8518 7.27321C28.8518 7.6566 28.8518 7.98361 28.8518 8.25424C28.8518 8.52488 28.8461 8.79551 28.8349 9.06614C28.8349 9.33677 28.8349 9.66378 28.8349 10.0472C28.8349 10.205 28.8292 10.4306 28.8179 10.7238C28.8067 11.0057 28.7897 11.2763 28.7672 11.5356C28.9589 11.5131 29.1619 11.5018 29.3761 11.5018C29.5904 11.4905 29.7539 11.4849 29.8666 11.4849V12.7704H26.6698ZM26.4837 8.88008C26.168 8.91391 25.8692 8.97029 25.5873 9.04922C25.3054 9.12816 25.0573 9.23528 24.843 9.3706C24.6401 9.50591 24.4766 9.66942 24.3525 9.86112C24.2398 10.0528 24.1834 10.2671 24.1834 10.5039C24.1947 10.8196 24.2961 11.0451 24.4878 11.1804C24.6795 11.3158 24.8994 11.3834 25.1475 11.3834C25.4069 11.3834 25.6493 11.327 25.8748 11.2143C26.1004 11.1015 26.3033 10.9549 26.4837 10.7745C26.4837 10.6617 26.4837 10.5546 26.4837 10.4531C26.4837 10.3404 26.4837 10.2276 26.4837 10.1148C26.4837 9.91186 26.4837 9.70889 26.4837 9.50591C26.4837 9.29166 26.4837 9.08305 26.4837 8.88008Z" fill="#133629"/>
<path d="M30.4995 12.7704V11.671C30.8152 11.671 31.0407 11.6089 31.176 11.4849C31.3114 11.3609 31.3959 11.1861 31.4298 10.9606C31.4749 10.7238 31.4974 10.4588 31.4974 10.1656V7.32395C31.4974 7.12098 31.5031 6.89545 31.5143 6.64737C31.5256 6.38802 31.5425 6.1343 31.5651 5.88622C31.3847 5.8975 31.1704 5.90878 30.9223 5.92005C30.6855 5.92005 30.5051 5.92569 30.3811 5.93697V4.65147C30.8998 4.65147 31.3396 4.62328 31.7004 4.5669C32.0612 4.51052 32.3431 4.44286 32.5461 4.36392C32.7604 4.28499 32.907 4.21169 32.9859 4.14404H33.8147C33.8373 4.29063 33.8485 4.39775 33.8485 4.46541C33.8485 4.53307 33.8485 4.60073 33.8485 4.66838C33.8598 4.72477 33.8824 4.83189 33.9162 4.98976C34.1417 4.80934 34.4011 4.65147 34.6943 4.51615C34.9874 4.36956 35.2806 4.2568 35.5738 4.17787C35.867 4.08766 36.1263 4.04255 36.3519 4.04255C37.3893 4.04255 38.1222 4.34137 38.5507 4.93902C38.9905 5.52538 39.2104 6.47259 39.2104 7.78064V10.0472C39.2104 10.205 39.2048 10.4306 39.1935 10.7238C39.1822 11.0057 39.1653 11.2763 39.1427 11.5356C39.3344 11.5131 39.5374 11.5018 39.7517 11.5018C39.9659 11.4905 40.1294 11.4849 40.2422 11.4849V12.7704H35.8106V11.671C36.1263 11.671 36.3519 11.6089 36.4872 11.4849C36.6338 11.3609 36.724 11.1861 36.7578 10.9606C36.8029 10.7238 36.8255 10.4588 36.8255 10.1656L36.8086 7.76373C36.8086 7.03077 36.7014 6.48951 36.4872 6.13994C36.2842 5.7791 35.9346 5.59868 35.4385 5.59868C35.1566 5.59868 34.8747 5.6607 34.5928 5.78474C34.3221 5.90878 34.091 6.05537 33.8993 6.22451C33.8993 6.38238 33.8993 6.54589 33.8993 6.71503C33.8993 6.8729 33.8993 7.03077 33.8993 7.18864V10.0472C33.8993 10.205 33.8936 10.4306 33.8824 10.7238C33.8711 11.0057 33.8542 11.2763 33.8316 11.5356C34.012 11.5131 34.2094 11.5018 34.4236 11.5018C34.6491 11.4905 34.8183 11.4849 34.9311 11.4849V12.7704H30.4995Z" fill="#133629"/>
<path d="M44.9062 13.041C44.1507 13.041 43.4572 12.8719 42.8257 12.5336C42.1943 12.1953 41.6868 11.7048 41.3034 11.062C40.9313 10.4193 40.7453 9.64123 40.7453 8.72785C40.7453 8.0851 40.8524 7.48182 41.0666 6.918C41.2809 6.35419 41.5797 5.85803 41.9631 5.42953C42.3578 5.00103 42.8201 4.66275 43.3501 4.41467C43.8913 4.16659 44.489 4.04255 45.143 4.04255C45.8647 4.04255 46.4623 4.15531 46.9359 4.38084C47.4208 4.59509 47.7817 4.88263 48.0185 5.24348C48.2665 5.59304 48.3906 5.96516 48.3906 6.35983C48.3906 6.68684 48.2891 6.98002 48.0861 7.23938C47.8944 7.48746 47.6182 7.61713 47.2573 7.62841C46.8288 7.63969 46.53 7.52129 46.3609 7.27321C46.1917 7.01385 46.1071 6.76577 46.1071 6.52897C46.1071 6.42749 46.1241 6.30908 46.1579 6.17377C46.1917 6.02718 46.2425 5.8975 46.3101 5.78474C46.2312 5.61559 46.1128 5.49155 45.9549 5.41262C45.797 5.33369 45.6335 5.28294 45.4644 5.26039C45.3065 5.22656 45.1768 5.21528 45.0754 5.22656C44.5341 5.26039 44.0887 5.53102 43.7391 6.03845C43.3895 6.54589 43.2148 7.27885 43.2148 8.23733C43.2148 8.80114 43.2824 9.33113 43.4177 9.82729C43.5643 10.3122 43.8011 10.7125 44.1281 11.0282C44.4552 11.3439 44.8949 11.5131 45.4475 11.5356C45.9211 11.5469 46.3834 11.4342 46.8345 11.1974C47.2855 10.9606 47.6689 10.6392 47.9846 10.2332L48.7627 10.9944C48.3568 11.5582 47.9339 11.9867 47.4941 12.2799C47.0543 12.5731 46.6146 12.7704 46.1748 12.8719C45.7463 12.9846 45.3234 13.041 44.9062 13.041Z" fill="#133629"/>
<path d="M53.3394 13.041C52.5162 13.041 51.7889 12.8606 51.1574 12.4998C50.5259 12.1277 50.0354 11.6089 49.6859 10.9436C49.3363 10.2671 49.1615 9.47208 49.1615 8.5587C49.1615 7.76936 49.3363 7.03077 49.6859 6.34291C50.0354 5.65506 50.5259 5.10252 51.1574 4.6853C51.8002 4.2568 52.5444 4.04255 53.3901 4.04255C53.8637 4.04255 54.3261 4.11021 54.7771 4.24552C55.2282 4.36956 55.6341 4.58945 55.9949 4.90519C56.3671 5.22092 56.6602 5.64942 56.8745 6.19068C57.1 6.73195 57.2071 7.40852 57.1959 8.22042L51.6479 8.3219C51.6479 8.93082 51.7212 9.47772 51.8678 9.9626C52.0257 10.4475 52.2794 10.8309 52.629 11.1128C52.9785 11.3947 53.4465 11.5356 54.0329 11.5356C54.2584 11.5356 54.5121 11.4962 54.794 11.4172C55.0872 11.3383 55.3804 11.2086 55.6736 11.0282C55.978 10.8365 56.2599 10.5828 56.5193 10.2671L57.2804 10.9775C56.8745 11.5526 56.4404 11.9923 55.978 12.2968C55.5157 12.59 55.0534 12.7873 54.591 12.8888C54.14 12.9903 53.7228 13.041 53.3394 13.041ZM51.7494 7.13789H54.8617C54.8504 6.66429 54.7827 6.29217 54.6587 6.02154C54.5459 5.73963 54.3881 5.53666 54.1851 5.41262C53.9821 5.28858 53.7453 5.22656 53.4747 5.22656C52.9785 5.22656 52.5895 5.40698 52.3076 5.76782C52.0257 6.11739 51.8396 6.57408 51.7494 7.13789Z" fill="#133629"/>
</svg>
