<svg width="24" height="28" viewBox="0 0 24 28" fill="none" xmlns="http://www.w3.org/2000/svg">
<rect x="12" y="3.32568" width="16.9706" height="16.9706" rx="4.24264" transform="rotate(45 12 3.32568)" fill="#75AD96"/>
<g filter="url(#filter0_d_68_161)">
<rect x="12" y="0.674072" width="16.9706" height="16.9706" rx="4.24264" transform="rotate(45 12 0.674072)" fill="#133629"/>
</g>
<path d="M10.1364 12.1389C10.8801 12.6889 11.548 13.3314 12.1237 14.0501C12.1731 14.1118 12.1978 14.186 12.1978 14.2602M10.1364 16.3816C10.8801 15.8316 11.548 15.1891 12.1237 14.4704C12.1731 14.4087 12.1978 14.3345 12.1978 14.2602M12.1978 14.2602H5.8338" stroke="white" stroke-width="1.06066" stroke-linecap="round" stroke-linejoin="round"/>
<path d="M13.9263 9.15942C13.1826 9.7094 12.5147 10.3519 11.939 11.0706C11.8896 11.1323 11.8649 11.2065 11.8649 11.2807M13.9263 13.4021C13.1826 12.8521 12.5147 12.2096 11.939 11.4909C11.8896 11.4292 11.8649 11.355 11.8649 11.2807M11.8649 11.2807H18.2289" stroke="white" stroke-width="1.06066" stroke-linecap="round" stroke-linejoin="round"/>
<defs>
<filter id="filter0_d_68_161" x="1.75735" y="2.4314" width="20.4853" height="22.0763" filterUnits="userSpaceOnUse" color-interpolation-filters="sRGB">
<feFlood flood-opacity="0" result="BackgroundImageFix"/>
<feColorMatrix in="SourceAlpha" type="matrix" values="0 0 0 0 0 0 0 0 0 0 0 0 0 0 0 0 0 0 127 0" result="hardAlpha"/>
<feOffset dy="1.59099"/>
<feComposite in2="hardAlpha" operator="out"/>
<feColorMatrix type="matrix" values="0 0 0 0 0 0 0 0 0 0 0 0 0 0 0 0 0 0 0.1 0"/>
<feBlend mode="normal" in2="BackgroundImageFix" result="effect1_dropShadow_68_161"/>
<feBlend mode="normal" in="SourceGraphic" in2="effect1_dropShadow_68_161" result="shape"/>
</filter>
</defs>
</svg>
