<svg width="40" height="40" viewBox="0 0 40 40" fill="none" xmlns="http://www.w3.org/2000/svg">
<path d="M5 21.2645C5 19.5697 5 18.7223 5.19777 17.9285C5.37309 17.2249 5.66202 16.5546 6.05318 15.9441C6.49446 15.2553 7.11053 14.6734 8.34268 13.5097L12.676 9.41712C15.2535 6.98281 16.5423 5.76565 18.0125 5.30646C19.3067 4.90224 20.6933 4.90224 21.9875 5.30646C23.4577 5.76565 24.7465 6.98281 27.324 9.41712L31.6573 13.5097C32.8895 14.6734 33.5055 15.2553 33.9468 15.9441C34.338 16.5546 34.6269 17.2249 34.8022 17.9285C35 18.7223 35 19.5697 35 21.2645V24.3334C35 28.067 35 29.9339 34.2734 31.36C33.6342 32.6144 32.6143 33.6342 31.3599 34.2734C29.9339 35 28.067 35 24.3333 35H15.6667C11.933 35 10.0661 35 8.64006 34.2734C7.38565 33.6342 6.36578 32.6144 5.72662 31.36C5 29.9339 5 28.067 5 24.3334V21.2645Z" fill="#DD7143" fill-opacity="0.3"/>
<path d="M25 35V26.6667C25 23.9053 22.7614 21.6667 20 21.6667C17.2386 21.6667 15 23.9053 15 26.6667V35M12.676 9.41712L8.34268 13.5097C7.11053 14.6734 6.49446 15.2553 6.05318 15.9441C5.66202 16.5546 5.37309 17.2249 5.19777 17.9285C5 18.7223 5 19.5697 5 21.2645V24.3334C5 28.067 5 29.9339 5.72662 31.36C6.36578 32.6144 7.38565 33.6342 8.64006 34.2734C10.0661 35 11.933 35 15.6667 35H24.3333C28.067 35 29.9339 35 31.3599 34.2734C32.6143 33.6342 33.6342 32.6144 34.2734 31.36C35 29.9339 35 28.067 35 24.3334V21.2645C35 19.5697 35 18.7223 34.8022 17.9285C34.6269 17.2249 34.338 16.5546 33.9468 15.9441C33.5055 15.2553 32.8895 14.6734 31.6573 13.5097L27.324 9.41712C24.7465 6.98281 23.4577 5.76565 21.9875 5.30646C20.6933 4.90224 19.3067 4.90224 18.0125 5.30646C16.5423 5.76565 15.2535 6.98281 12.676 9.41712Z" stroke="#DD7143" stroke-width="2" stroke-linecap="round" stroke-linejoin="round"/>
</svg>
