<svg width="16" height="17" viewBox="0 0 16 17" fill="none" xmlns="http://www.w3.org/2000/svg">
<g clip-path="url(#clip0_70_438)">
<path d="M8.0004 0.891846C5.93415 0.891846 5.67484 0.900881 4.8633 0.937813C4.05335 0.974904 3.50049 1.10314 3.01673 1.29129C2.51634 1.48562 2.09187 1.74557 1.66898 2.16863C1.24578 2.59153 0.985831 3.01601 0.790871 3.51627C0.602252 4.00019 0.473865 4.55323 0.437409 5.36289C0.401112 6.17445 0.391602 6.43393 0.391602 8.50024C0.391602 10.5666 0.400795 10.8251 0.437568 11.6366C0.474816 12.4466 0.603045 12.9995 0.79103 13.4833C0.985514 13.9837 1.24546 14.4082 1.6685 14.8311C2.09123 15.2543 2.51571 15.5149 3.01578 15.7092C3.49985 15.8973 4.05287 16.0256 4.86267 16.0627C5.6742 16.0996 5.93336 16.1086 7.99945 16.1086C10.0659 16.1086 10.3244 16.0996 11.1359 16.0627C11.9459 16.0256 12.4994 15.8973 12.9834 15.7092C13.4837 15.5149 13.9075 15.2543 14.3302 14.8311C14.7534 14.4082 15.0134 13.9837 15.2083 13.4834C15.3954 12.9995 15.5238 12.4465 15.5618 11.6368C15.5983 10.8252 15.6078 10.5666 15.6078 8.50024C15.6078 6.43393 15.5983 6.17461 15.5618 5.36304C15.5238 4.55307 15.3954 4.00019 15.2083 3.51642C15.0134 3.01601 14.7534 2.59153 14.3302 2.16863C13.907 1.74541 13.4838 1.48546 12.983 1.29129C12.4979 1.10314 11.9448 0.974904 11.1348 0.937813C10.3233 0.900881 10.0649 0.891846 7.99802 0.891846H8.0004ZM7.31788 2.26294C7.52045 2.26262 7.74648 2.26294 8.0004 2.26294C10.0318 2.26294 10.2725 2.27023 11.0747 2.30669C11.8165 2.34061 12.2191 2.46456 12.4873 2.5687C12.8424 2.70661 13.0955 2.87145 13.3616 3.13775C13.6279 3.40404 13.7927 3.65765 13.931 4.01271C14.0351 4.28059 14.1592 4.6832 14.193 5.42502C14.2294 6.22707 14.2373 6.468 14.2373 8.49849C14.2373 10.529 14.2294 10.7699 14.193 11.572C14.159 12.3138 14.0351 12.7164 13.931 12.9843C13.7931 13.3393 13.6279 13.5922 13.3616 13.8583C13.0953 14.1246 12.8425 14.2894 12.4873 14.4273C12.2194 14.5319 11.8165 14.6556 11.0747 14.6895C10.2727 14.726 10.0318 14.7339 8.0004 14.7339C5.96886 14.7339 5.72809 14.726 4.92607 14.6895C4.18427 14.6553 3.78167 14.5313 3.51333 14.4272C3.15828 14.2893 2.90467 14.1244 2.63839 13.8581C2.3721 13.5918 2.20726 13.3389 2.06904 12.9836C1.96491 12.7158 1.8408 12.3132 1.80704 11.5713C1.77058 10.7693 1.76329 10.5283 1.76329 8.49659C1.76329 6.46483 1.77058 6.22517 1.80704 5.42312C1.84096 4.6813 1.96491 4.27869 2.06904 4.01049C2.20694 3.65544 2.3721 3.40182 2.63839 3.13553C2.90467 2.86923 3.15828 2.70439 3.51333 2.56617C3.78151 2.46155 4.18427 2.33792 4.92607 2.30384C5.62792 2.27214 5.89991 2.26262 7.31788 2.26104V2.26294ZM12.0616 3.52625C11.5575 3.52625 11.1486 3.93473 11.1486 4.43894C11.1486 4.943 11.5575 5.35195 12.0616 5.35195C12.5656 5.35195 12.9746 4.943 12.9746 4.43894C12.9746 3.93489 12.5656 3.52593 12.0616 3.52593V3.52625ZM8.0004 4.59301C5.84269 4.59301 4.09329 6.34247 4.09329 8.50024C4.09329 10.658 5.84269 12.4067 8.0004 12.4067C10.1581 12.4067 11.9069 10.658 11.9069 8.50024C11.9069 6.34247 10.1579 4.59301 8.00024 4.59301H8.0004ZM8.0004 5.96411C9.40093 5.96411 10.5365 7.0995 10.5365 8.50024C10.5365 9.90082 9.40093 11.0364 8.0004 11.0364C6.5997 11.0364 5.46434 9.90082 5.46434 8.50024C5.46434 7.0995 6.5997 5.96411 8.0004 5.96411Z" fill="#9B8957"/>
</g>
<defs>
<clipPath id="clip0_70_438">
<rect width="16" height="16" fill="white" transform="translate(0 0.5)"/>
</clipPath>
</defs>
</svg>
