<svg width="40" height="40" viewBox="0 0 40 40" fill="none" xmlns="http://www.w3.org/2000/svg">
<path d="M7.16545 14.3024C5.93869 13.7223 5.3253 13.4322 5.12847 13.0397C4.95718 12.6981 4.95718 12.3019 5.12847 11.9603C5.3253 11.5678 5.93868 11.2777 7.16545 10.6976L17.6178 5.75485C18.4913 5.3418 18.928 5.13528 19.3861 5.05399C19.7918 4.982 20.2082 4.982 20.6139 5.05399C21.072 5.13528 21.5087 5.3418 22.3822 5.75485L32.8345 10.6976C34.0613 11.2777 34.6747 11.5678 34.8715 11.9603C35.0428 12.3019 35.0428 12.6981 34.8715 13.0397C34.6747 13.4322 34.0613 13.7223 32.8346 14.3024L22.3822 19.2451C21.5087 19.6582 21.072 19.8647 20.6139 19.946C20.2082 20.018 19.7918 20.018 19.3861 19.946C18.928 19.8647 18.4913 19.6582 17.6178 19.2452L7.16545 14.3024Z" fill="#DD7143" fill-opacity="0.3"/>
<path d="M35 20C34.8015 20.4229 34.1828 20.7355 32.9454 21.3606L22.4028 26.6866C21.5218 27.1317 21.0813 27.3542 20.6192 27.4418C20.21 27.5194 19.79 27.5194 19.3808 27.4418C18.9188 27.3542 18.4782 27.1317 17.5972 26.6866L7.05458 21.3606C5.81722 20.7355 5.19853 20.4229 5 20M35 27.5C34.8015 27.9229 34.1828 28.2355 32.9454 28.8606L22.4028 34.1866C21.5218 34.6317 21.0813 34.8542 20.6192 34.9418C20.21 35.0194 19.79 35.0194 19.3808 34.9418C18.9187 34.8542 18.4782 34.6317 17.5972 34.1866L7.05458 28.8606C5.81722 28.2355 5.19853 27.9229 5 27.5M22.3822 19.2451L32.8346 14.3024C34.0613 13.7223 34.6747 13.4322 34.8715 13.0397C35.0428 12.6981 35.0428 12.3019 34.8715 11.9603C34.6747 11.5678 34.0613 11.2777 32.8345 10.6976L22.3822 5.75485C21.5087 5.3418 21.072 5.13528 20.6139 5.05399C20.2082 4.982 19.7918 4.982 19.3861 5.05399C18.928 5.13528 18.4913 5.3418 17.6178 5.75485L7.16545 10.6976C5.93868 11.2777 5.3253 11.5678 5.12847 11.9603C4.95718 12.3019 4.95718 12.6981 5.12847 13.0397C5.3253 13.4322 5.93869 13.7223 7.16545 14.3024L17.6178 19.2452C18.4913 19.6582 18.928 19.8647 19.3861 19.946C19.7918 20.018 20.2082 20.018 20.6139 19.946C21.072 19.8647 21.5087 19.6582 22.3822 19.2451Z" stroke="#DD7143" stroke-width="2" stroke-linecap="round" stroke-linejoin="round"/>
</svg>
