<svg width="16" height="17" viewBox="0 0 16 17" fill="none" xmlns="http://www.w3.org/2000/svg">
<g clip-path="url(#clip0_70_442)">
<path d="M13.6304 14.0879H11.2601V10.3874C11.2601 9.50503 11.2443 8.36911 10.0273 8.36911C8.79281 8.36911 8.60393 9.33052 8.60393 10.3232V14.0876H6.23362V6.47804H8.50911V7.51796H8.54097C8.76869 7.12982 9.09775 6.81051 9.49311 6.59405C9.88848 6.37759 10.3353 6.27208 10.7861 6.28876C13.1885 6.28876 13.6314 7.86403 13.6314 9.91337L13.6304 14.0879ZM3.55914 5.43786C3.28709 5.43791 3.02113 5.35754 2.7949 5.2069C2.56867 5.05627 2.39234 4.84214 2.28819 4.5916C2.18404 4.34106 2.15674 4.06536 2.20977 3.79936C2.26279 3.53336 2.39376 3.289 2.58609 3.0972C2.77843 2.90539 3.0235 2.77475 3.29031 2.7218C3.55713 2.66884 3.83369 2.69594 4.08505 2.79968C4.33642 2.90342 4.55127 3.07914 4.70246 3.30461C4.85364 3.53008 4.93436 3.79518 4.93441 4.06638C4.93444 4.24646 4.89889 4.42477 4.8298 4.59115C4.7607 4.75753 4.65942 4.90871 4.53171 5.03606C4.40401 5.16341 4.25238 5.26445 4.08551 5.33339C3.91863 5.40233 3.73978 5.43783 3.55914 5.43786ZM4.74429 14.0879H2.37153V6.47804H4.74429V14.0879ZM14.8121 0.501086H1.18046C0.871058 0.497606 0.572914 0.616721 0.351567 0.832256C0.130219 1.04779 0.00377606 1.34211 0 1.65055V15.2961C0.00364682 15.6047 0.130016 15.8993 0.351356 16.115C0.572696 16.3308 0.870905 16.4501 1.18046 16.4468H14.8121C15.1223 16.4507 15.4213 16.3317 15.6436 16.116C15.8658 15.9002 15.993 15.6053 15.9973 15.2961V1.64956C15.9928 1.34052 15.8655 1.04586 15.6433 0.83033C15.4211 0.6148 15.1221 0.496026 14.8121 0.500102" fill="#9B8957"/>
</g>
<defs>
<clipPath id="clip0_70_442">
<rect width="16" height="16" fill="white" transform="translate(0 0.5)"/>
</clipPath>
</defs>
</svg>
