<svg width="40" height="40" viewBox="0 0 40 40" fill="none" xmlns="http://www.w3.org/2000/svg">
<path d="M6.90571 25.8305C6.64751 22.4947 6.51841 20.8269 6.93969 19.5042C7.50139 17.7407 8.72333 16.3109 10.3091 15.5618C10.4384 15.5007 10.5721 15.4463 10.7116 15.3977C11.8549 15 13.3911 15 16.162 15H23.838C26.6089 15 28.1451 15 29.2884 15.3977C29.4279 15.4463 29.5616 15.5007 29.6909 15.5618C31.2767 16.3109 32.4986 17.7407 33.0603 19.5042C33.4816 20.8269 33.3525 22.4947 33.0943 25.8305C32.8721 28.7014 32.761 30.1368 32.2489 31.2634C31.5663 32.7655 30.3842 33.9365 28.9371 34.5442C27.8518 35 26.5138 35 23.838 35H16.162C13.4862 35 12.1482 35 11.0629 34.5442C9.61582 33.9365 8.43373 32.7655 7.75105 31.2634C7.23903 30.1368 7.12792 28.7014 6.90571 25.8305Z" fill="#DD7143" fill-opacity="0.3"/>
<path d="M21.5481 23.3333C21.5481 24.2538 20.855 25 20 25C19.145 25 18.4519 24.2538 18.4519 23.3333C18.4519 22.4129 19.145 21.6667 20 21.6667C20.855 21.6667 21.5481 22.4129 21.5481 23.3333Z" fill="#DD7143" fill-opacity="0.3"/>
<path d="M20 28.3333V25M20 25C20.855 25 21.5481 24.2538 21.5481 23.3333C21.5481 22.4129 20.855 21.6667 20 21.6667C19.145 21.6667 18.4519 22.4129 18.4519 23.3333C18.4519 24.2538 19.145 25 20 25ZM29.2884 15.3977V15C29.2884 9.47715 25.1298 5 20 5C14.8702 5 10.7116 9.47715 10.7116 15V15.3977M29.2884 15.3977C28.1451 15 26.6089 15 23.838 15H16.162C13.3911 15 11.8549 15 10.7116 15.3977M29.2884 15.3977C29.4279 15.4463 29.5616 15.5007 29.6909 15.5618C31.2767 16.3109 32.4986 17.7407 33.0603 19.5042C33.4816 20.8269 33.3525 22.4947 33.0943 25.8305C32.8721 28.7014 32.761 30.1368 32.2489 31.2634C31.5663 32.7655 30.3842 33.9365 28.9371 34.5442C27.8518 35 26.5138 35 23.838 35H16.162C13.4862 35 12.1482 35 11.0629 34.5442C9.61582 33.9365 8.43373 32.7655 7.75105 31.2634C7.23903 30.1368 7.12792 28.7014 6.90571 25.8305C6.64751 22.4947 6.51841 20.8269 6.93969 19.5042C7.50139 17.7407 8.72333 16.3109 10.3091 15.5618C10.4384 15.5007 10.5721 15.4463 10.7116 15.3977" stroke="#DD7143" stroke-width="2" stroke-linecap="round" stroke-linejoin="round"/>
</svg>
