<svg width="51" height="14" viewBox="0 0 51 14" fill="none" xmlns="http://www.w3.org/2000/svg">
<path d="M4.73615 14C3.92426 14 3.1913 13.8252 2.53728 13.4757C1.88325 13.1261 1.36454 12.6299 0.98115 11.9872C0.609032 11.3332 0.422974 10.5664 0.422974 9.68683C0.422974 8.7509 0.614671 7.93337 0.998064 7.23424C1.39273 6.52383 1.91144 5.97693 2.55419 5.59354C3.20822 5.19887 3.91862 5.00153 4.68541 5.00153C5.4973 5.00153 6.22462 5.17632 6.86737 5.52588C7.51012 5.87545 8.01755 6.37724 8.38967 7.03127C8.76179 7.67402 8.94785 8.44644 8.94785 9.34855C8.94785 10.2958 8.76743 11.1189 8.40659 11.8181C8.04575 12.5172 7.54959 13.0584 6.91812 13.4418C6.28664 13.814 5.55932 14 4.73615 14ZM4.80381 12.7991C5.25486 12.7878 5.59315 12.6299 5.81868 12.3255C6.05548 12.021 6.21899 11.6376 6.3092 11.1753C6.39941 10.713 6.44451 10.245 6.44451 9.77141C6.44451 9.35418 6.41068 8.93132 6.34303 8.50282C6.28664 8.07432 6.1908 7.68529 6.05548 7.33573C5.92017 6.98616 5.73411 6.70425 5.4973 6.49001C5.27178 6.27576 4.98987 6.17427 4.65158 6.18555C4.21181 6.19682 3.86224 6.35469 3.60289 6.65915C3.35481 6.96361 3.17439 7.347 3.06163 7.80933C2.96014 8.26038 2.9094 8.73399 2.9094 9.23014C2.9094 9.80523 2.97142 10.369 3.09545 10.9216C3.21949 11.4741 3.41683 11.9308 3.68746 12.2917C3.96937 12.6412 4.34148 12.8104 4.80381 12.7991Z" fill="#133629"/>
<path d="M9.83427 13.7294V12.6299C10.15 12.6299 10.3755 12.5679 10.5108 12.4439C10.6462 12.3198 10.7307 12.1451 10.7646 11.9195C10.8097 11.6827 10.8322 11.4177 10.8322 11.1246V8.28294C10.8322 8.07996 10.8379 7.85444 10.8491 7.60636C10.8604 7.347 10.8773 7.09329 10.8999 6.84521C10.7195 6.85648 10.5052 6.86776 10.2571 6.87904C10.0203 6.87904 9.83991 6.88468 9.71587 6.89595V5.61045C10.2346 5.61045 10.6744 5.58226 11.0352 5.52588C11.396 5.4695 11.6779 5.40184 11.8809 5.32291C12.0952 5.24398 12.2418 5.17068 12.3207 5.10302H13.1495C13.1721 5.21578 13.1833 5.35674 13.1833 5.52588C13.1946 5.69503 13.2059 5.83598 13.2172 5.94874C13.6006 5.65556 14.0121 5.4244 14.4519 5.25525C14.903 5.08611 15.3258 5.00153 15.7205 5.00153C16.2392 5.00153 16.6677 5.09738 17.006 5.28908C17.3443 5.4695 17.6149 5.74577 17.8179 6.11789C18.2238 5.7796 18.6692 5.50897 19.1541 5.30599C19.6503 5.10302 20.1239 5.00153 20.5749 5.00153C21.4883 5.00153 22.1762 5.26653 22.6385 5.79651C23.1121 6.31522 23.3489 7.22296 23.3489 8.51974V11.0062C23.3489 11.164 23.3433 11.3896 23.332 11.6827C23.3207 11.9646 23.3038 12.2353 23.2812 12.4946C23.4617 12.4721 23.659 12.4608 23.8733 12.4608C24.0988 12.4495 24.2679 12.4439 24.3807 12.4439V13.7294H20.1013V12.6299C20.3607 12.6299 20.5467 12.5679 20.6595 12.4439C20.7835 12.3198 20.8625 12.1451 20.8963 11.9195C20.9301 11.6827 20.9471 11.4177 20.9471 11.1246V8.53665C20.9358 7.80369 20.8117 7.29626 20.5749 7.01435C20.3494 6.73245 20.045 6.58585 19.6616 6.57458C19.3684 6.5633 19.0921 6.61404 18.8328 6.72681C18.5847 6.83957 18.3591 6.97489 18.1562 7.13275C18.2126 7.35828 18.252 7.60636 18.2746 7.87699C18.2971 8.14762 18.3084 8.43517 18.3084 8.73962C18.3084 9.12302 18.3084 9.50077 18.3084 9.87289C18.3084 10.245 18.3084 10.6228 18.3084 11.0062C18.3084 11.164 18.3028 11.3896 18.2915 11.6827C18.2802 11.9646 18.2633 12.2353 18.2407 12.4946C18.4212 12.4721 18.6185 12.4608 18.8328 12.4608C19.047 12.4495 19.2161 12.4439 19.3402 12.4439V13.7294H14.9763V12.6299C15.2694 12.6299 15.4781 12.5679 15.6021 12.4439C15.7374 12.3198 15.822 12.1451 15.8558 11.9195C15.8896 11.6827 15.9066 11.4177 15.9066 11.1246L15.8896 8.48591C15.8896 7.75295 15.7825 7.25115 15.5683 6.98052C15.354 6.70989 15.0552 6.56894 14.6718 6.55766C14.3899 6.55766 14.1249 6.61968 13.8768 6.74372C13.64 6.86776 13.4258 7.01435 13.2341 7.1835C13.2341 7.33009 13.2341 7.47104 13.2341 7.60636C13.2341 7.74167 13.2341 7.88263 13.2341 8.02922V11.0062C13.2341 11.164 13.2284 11.3896 13.2172 11.6827C13.2059 11.9646 13.189 12.2353 13.1664 12.4946C13.3468 12.4721 13.5329 12.4608 13.7246 12.4608C13.9163 12.4495 14.0685 12.4439 14.1813 12.4439V13.7294H9.83427Z" fill="#133629"/>
<path d="M25.0559 12.6299C25.3717 12.6299 25.5972 12.5679 25.7325 12.4439C25.8678 12.3198 25.9524 12.1451 25.9862 11.9195C26.0313 11.6827 26.0539 11.4177 26.0539 11.1246V8.31676C26.0539 8.11379 26.0595 7.88263 26.0708 7.62327C26.0821 7.35264 26.099 7.09329 26.1216 6.84521C25.9411 6.85648 25.7269 6.86776 25.4788 6.87904C25.242 6.87904 25.0616 6.88468 24.9375 6.89595V5.61045C25.4562 5.61045 25.896 5.58226 26.2569 5.52588C26.6177 5.4695 26.8996 5.40184 27.1026 5.32291C27.3168 5.24398 27.4634 5.17068 27.5424 5.10302H28.4557V11.0062C28.4557 11.164 28.4501 11.3896 28.4388 11.6827C28.4276 11.9646 28.4106 12.2353 28.3881 12.4946C28.5685 12.4721 28.7658 12.4608 28.9801 12.4608C29.2056 12.4495 29.3748 12.4439 29.4875 12.4439V13.7294H25.0559V12.6299ZM27.1702 3.76678C26.7869 3.76678 26.4711 3.63147 26.223 3.36083C25.975 3.0902 25.8509 2.76319 25.8509 2.3798C25.8509 1.9964 25.9806 1.66939 26.24 1.39876C26.4993 1.12813 26.8038 0.992814 27.1533 0.992814C27.5142 0.992814 27.813 1.12813 28.0498 1.39876C28.2979 1.66939 28.4219 1.9964 28.4219 2.3798C28.4219 2.76319 28.3092 3.0902 28.0836 3.36083C27.8581 3.63147 27.5536 3.76678 27.1702 3.76678Z" fill="#133629"/>
<path d="M29.9806 13.7294V12.6299C30.2963 12.6299 30.5218 12.5679 30.6571 12.4439C30.8037 12.3198 30.8939 12.1451 30.9278 11.9195C30.9729 11.6827 30.9954 11.4177 30.9954 11.1246V4.17273C30.9954 3.96975 31.0011 3.73859 31.0123 3.47924C31.0236 3.2086 31.0405 2.94925 31.0631 2.70117C30.8827 2.71245 30.6684 2.72372 30.4203 2.735C30.1835 2.735 30.0031 2.74064 29.8791 2.75191V1.46642C30.3978 1.46642 30.8319 1.43823 31.1815 1.38185C31.5423 1.32546 31.8299 1.25781 32.0441 1.17887C32.2584 1.09994 32.3993 1.02664 32.467 0.958984H33.3973V8.67197H34.2092L35.427 7.26807C35.5736 7.1102 35.692 6.97489 35.7822 6.86212C35.8837 6.74936 35.9852 6.64787 36.0867 6.55766H35.1902V5.27217H38.9959V6.35469C38.6013 6.39979 38.2517 6.49564 37.9473 6.64223C37.6428 6.77755 37.3778 6.94106 37.1523 7.13275C36.938 7.32445 36.752 7.51051 36.5941 7.69093L35.5116 8.90877C35.6807 8.9877 35.8442 9.1061 36.0021 9.26397C36.1712 9.41056 36.3742 9.64173 36.611 9.95746L37.7443 11.4459C37.8119 11.5249 37.8965 11.632 37.998 11.7673C38.1108 11.9026 38.2348 12.0379 38.3701 12.1733C38.5054 12.2973 38.652 12.4044 38.8099 12.4946C38.9678 12.5848 39.1313 12.6299 39.3004 12.6299V13.7294H37.3552C36.9944 13.7294 36.6787 13.6053 36.408 13.3573C36.1374 13.0979 35.8273 12.7314 35.4777 12.2578C35.2748 11.9872 35.0605 11.6997 34.835 11.3952C34.6207 11.0795 34.4178 10.7863 34.2261 10.5156C34.0457 10.2337 33.8991 10.0138 33.7863 9.85598L33.3973 9.87289V11.0062C33.3973 11.164 33.3916 11.3896 33.3804 11.6827C33.3691 11.9646 33.3522 12.2353 33.3296 12.4946C33.51 12.4721 33.7074 12.4608 33.9216 12.4608C34.1359 12.4495 34.305 12.4439 34.4291 12.4439V13.7294H29.9806Z" fill="#133629"/>
<path d="M44.592 13.7294C44.5694 13.5715 44.5525 13.4418 44.5412 13.3404C44.5412 13.2276 44.5356 13.0979 44.5243 12.9513C44.1409 13.3347 43.735 13.6053 43.3065 13.7632C42.878 13.9211 42.4438 14 42.0041 14C41.2824 14 40.7186 13.7858 40.3126 13.3573C39.9067 12.9288 39.7037 12.3931 39.7037 11.7504C39.7037 11.2091 39.839 10.7468 40.1097 10.3634C40.3916 9.98002 40.758 9.66992 41.2091 9.43312C41.6714 9.18504 42.1789 8.99898 42.7314 8.87494C43.2952 8.73962 43.859 8.66069 44.4228 8.63814V7.75859C44.4228 7.4654 44.3834 7.20041 44.3044 6.96361C44.2368 6.72681 44.1127 6.54075 43.9323 6.40543C43.7632 6.27012 43.5207 6.2081 43.205 6.21937C42.9907 6.23065 42.7821 6.27576 42.5792 6.35469C42.3762 6.43362 42.2014 6.54639 42.0548 6.69298C42.145 6.79447 42.2014 6.90723 42.224 7.03127C42.2465 7.14403 42.2578 7.24552 42.2578 7.33573C42.2578 7.56125 42.1676 7.79805 41.9872 8.04613C41.8067 8.28294 41.5192 8.3957 41.1245 8.38442C40.7862 8.37315 40.5269 8.25474 40.3465 8.02922C40.166 7.80369 40.0758 7.5387 40.0758 7.23424C40.0758 6.78319 40.2337 6.39416 40.5494 6.06714C40.8764 5.72886 41.3106 5.4695 41.8518 5.28908C42.3931 5.09738 42.9907 5.00153 43.6448 5.00153C44.6371 5.00153 45.4039 5.26089 45.9451 5.7796C46.4977 6.28703 46.7739 7.10456 46.7739 8.23219C46.7739 8.61559 46.7739 8.9426 46.7739 9.21323C46.7739 9.48386 46.7683 9.75449 46.757 10.0251C46.757 10.2958 46.757 10.6228 46.757 11.0062C46.757 11.164 46.7514 11.3896 46.7401 11.6827C46.7288 11.9646 46.7119 12.2353 46.6894 12.4946C46.8811 12.4721 47.084 12.4608 47.2983 12.4608C47.5125 12.4495 47.676 12.4439 47.7888 12.4439V13.7294H44.592ZM44.4059 9.83906C44.0902 9.87289 43.7914 9.92927 43.5095 10.0082C43.2275 10.0871 42.9795 10.1943 42.7652 10.3296C42.5622 10.4649 42.3987 10.6284 42.2747 10.8201C42.1619 11.0118 42.1056 11.226 42.1056 11.4628C42.1168 11.7786 42.2183 12.0041 42.41 12.1394C42.6017 12.2747 42.8216 12.3424 43.0697 12.3424C43.329 12.3424 43.5715 12.286 43.797 12.1733C44.0225 12.0605 44.2255 11.9139 44.4059 11.7335C44.4059 11.6207 44.4059 11.5136 44.4059 11.4121C44.4059 11.2993 44.4059 11.1866 44.4059 11.0738C44.4059 10.8708 44.4059 10.6679 44.4059 10.4649C44.4059 10.2506 44.4059 10.042 44.4059 9.83906Z" fill="#133629"/>
<path d="M49.7071 14C49.3463 14 49.0475 13.8703 48.8107 13.611C48.5852 13.3516 48.4724 13.0415 48.4724 12.6807C48.4724 12.3198 48.5964 12.0097 48.8445 11.7504C49.0926 11.491 49.3801 11.3614 49.7071 11.3614C50.0567 11.3614 50.3443 11.491 50.5698 11.7504C50.8066 12.0097 50.925 12.3198 50.925 12.6807C50.925 13.0415 50.8122 13.3516 50.5867 13.611C50.3724 13.8703 50.0793 14 49.7071 14Z" fill="#133629"/>
</svg>
