<svg width="51" height="14" viewBox="0 0 51 14" fill="none" xmlns="http://www.w3.org/2000/svg">
<path d="M4.73628 14C3.92438 14 3.19142 13.8252 2.5374 13.4757C1.88338 13.1261 1.36467 12.6299 0.981272 11.9872C0.609154 11.3332 0.423096 10.5664 0.423096 9.68683C0.423096 8.7509 0.614793 7.93337 0.998187 7.23424C1.39286 6.52383 1.91157 5.97693 2.55431 5.59354C3.20834 5.19887 3.91875 5.00153 4.68553 5.00153C5.49743 5.00153 6.22475 5.17632 6.8675 5.52588C7.51024 5.87545 8.01768 6.37724 8.38979 7.03127C8.76191 7.67402 8.94797 8.44644 8.94797 9.34855C8.94797 10.2958 8.76755 11.1189 8.40671 11.8181C8.04587 12.5172 7.54971 13.0584 6.91824 13.4418C6.28677 13.814 5.55945 14 4.73628 14ZM4.80393 12.7991C5.25499 12.7878 5.59327 12.6299 5.8188 12.3255C6.0556 12.021 6.21911 11.6376 6.30932 11.1753C6.39953 10.713 6.44463 10.245 6.44463 9.77141C6.44463 9.35418 6.41081 8.93132 6.34315 8.50282C6.28677 8.07432 6.19092 7.68529 6.0556 7.33573C5.92029 6.98616 5.73423 6.70425 5.49743 6.49001C5.2719 6.27576 4.98999 6.17427 4.6517 6.18555C4.21193 6.19682 3.86236 6.35469 3.60301 6.65915C3.35493 6.96361 3.17451 7.347 3.06175 7.80933C2.96026 8.26038 2.90952 8.73399 2.90952 9.23014C2.90952 9.80523 2.97154 10.369 3.09558 10.9216C3.21962 11.4741 3.41695 11.9308 3.68758 12.2917C3.96949 12.6412 4.34161 12.8104 4.80393 12.7991Z" fill="#133629"/>
<path d="M9.83439 13.7294V12.6299C10.1501 12.6299 10.3757 12.5679 10.511 12.4439C10.6463 12.3198 10.7309 12.1451 10.7647 11.9195C10.8098 11.6827 10.8323 11.4177 10.8323 11.1246V8.28294C10.8323 8.07996 10.838 7.85444 10.8493 7.60636C10.8605 7.347 10.8774 7.09329 10.9 6.84521C10.7196 6.85648 10.5053 6.86776 10.2573 6.87904C10.0205 6.87904 9.84003 6.88468 9.71599 6.89595V5.61045C10.2347 5.61045 10.6745 5.58226 11.0353 5.52588C11.3962 5.4695 11.6781 5.40184 11.881 5.32291C12.0953 5.24398 12.2419 5.17068 12.3208 5.10302H13.1496C13.1722 5.21578 13.1835 5.35674 13.1835 5.52588C13.1947 5.69503 13.206 5.83598 13.2173 5.94874C13.6007 5.65556 14.0123 5.4244 14.452 5.25525C14.9031 5.08611 15.3259 5.00153 15.7206 5.00153C16.2393 5.00153 16.6678 5.09738 17.0061 5.28908C17.3444 5.4695 17.615 5.74577 17.818 6.11789C18.224 5.7796 18.6694 5.50897 19.1542 5.30599C19.6504 5.10302 20.124 5.00153 20.5751 5.00153C21.4884 5.00153 22.1763 5.26653 22.6386 5.79651C23.1122 6.31522 23.349 7.22296 23.349 8.51974V11.0062C23.349 11.164 23.3434 11.3896 23.3321 11.6827C23.3208 11.9646 23.3039 12.2353 23.2814 12.4946C23.4618 12.4721 23.6591 12.4608 23.8734 12.4608C24.0989 12.4495 24.268 12.4439 24.3808 12.4439V13.7294H20.1015V12.6299C20.3608 12.6299 20.5469 12.5679 20.6596 12.4439C20.7837 12.3198 20.8626 12.1451 20.8964 11.9195C20.9303 11.6827 20.9472 11.4177 20.9472 11.1246V8.53665C20.9359 7.80369 20.8119 7.29626 20.5751 7.01435C20.3495 6.73245 20.0451 6.58585 19.6617 6.57458C19.3685 6.5633 19.0922 6.61404 18.8329 6.72681C18.5848 6.83957 18.3593 6.97489 18.1563 7.13275C18.2127 7.35828 18.2521 7.60636 18.2747 7.87699C18.2972 8.14762 18.3085 8.43516 18.3085 8.73962C18.3085 9.12302 18.3085 9.50078 18.3085 9.87289C18.3085 10.245 18.3085 10.6228 18.3085 11.0062C18.3085 11.164 18.3029 11.3896 18.2916 11.6827C18.2803 11.9646 18.2634 12.2353 18.2409 12.4946C18.4213 12.4721 18.6186 12.4608 18.8329 12.4608C19.0471 12.4495 19.2163 12.4439 19.3403 12.4439V13.7294H14.9764V12.6299C15.2696 12.6299 15.4782 12.5679 15.6022 12.4439C15.7375 12.3198 15.8221 12.1451 15.8559 11.9195C15.8898 11.6827 15.9067 11.4177 15.9067 11.1246L15.8898 8.48591C15.8898 7.75295 15.7826 7.25115 15.5684 6.98052C15.3541 6.70989 15.0553 6.56894 14.6719 6.55766C14.39 6.55766 14.125 6.61968 13.8769 6.74372C13.6401 6.86776 13.4259 7.01435 13.2342 7.1835C13.2342 7.33009 13.2342 7.47104 13.2342 7.60636C13.2342 7.74167 13.2342 7.88263 13.2342 8.02922V11.0062C13.2342 11.164 13.2286 11.3896 13.2173 11.6827C13.206 11.9646 13.1891 12.2353 13.1665 12.4946C13.347 12.4721 13.533 12.4608 13.7247 12.4608C13.9164 12.4495 14.0686 12.4439 14.1814 12.4439V13.7294H9.83439Z" fill="#133629"/>
<path d="M25.0561 12.6299C25.3718 12.6299 25.5973 12.5679 25.7326 12.4439C25.868 12.3198 25.9525 12.1451 25.9864 11.9195C26.0315 11.6827 26.054 11.4177 26.054 11.1246V8.31676C26.054 8.11379 26.0597 7.88263 26.0709 7.62327C26.0822 7.35264 26.0991 7.09329 26.1217 6.84521C25.9413 6.85648 25.727 6.86776 25.4789 6.87904C25.2421 6.87904 25.0617 6.88468 24.9377 6.89595V5.61045C25.4564 5.61045 25.8961 5.58226 26.257 5.52588C26.6178 5.4695 26.8997 5.40184 27.1027 5.32291C27.317 5.24398 27.4636 5.17068 27.5425 5.10302H28.4559V11.0062C28.4559 11.164 28.4502 11.3896 28.4389 11.6827C28.4277 11.9646 28.4108 12.2353 28.3882 12.4946C28.5686 12.4721 28.766 12.4608 28.9802 12.4608C29.2057 12.4495 29.3749 12.4439 29.4876 12.4439V13.7294H25.0561V12.6299ZM27.1704 3.76678C26.787 3.76678 26.4712 3.63147 26.2232 3.36083C25.9751 3.0902 25.851 2.76319 25.851 2.3798C25.851 1.9964 25.9807 1.66939 26.2401 1.39876C26.4994 1.12813 26.8039 0.992814 27.1535 0.992814C27.5143 0.992814 27.8131 1.12813 28.0499 1.39876C28.298 1.66939 28.422 1.9964 28.422 2.3798C28.422 2.76319 28.3093 3.0902 28.0837 3.36083C27.8582 3.63147 27.5538 3.76678 27.1704 3.76678Z" fill="#133629"/>
<path d="M29.9807 13.7294V12.6299C30.2964 12.6299 30.5219 12.5679 30.6573 12.4439C30.8038 12.3198 30.8941 12.1451 30.9279 11.9195C30.973 11.6827 30.9955 11.4177 30.9955 11.1246V4.17273C30.9955 3.96975 31.0012 3.73859 31.0125 3.47924C31.0237 3.2086 31.0406 2.94925 31.0632 2.70117C30.8828 2.71245 30.6685 2.72372 30.4205 2.735C30.1836 2.735 30.0032 2.74064 29.8792 2.75191V1.46642C30.3979 1.46642 30.832 1.43823 31.1816 1.38185C31.5424 1.32546 31.83 1.25781 32.0442 1.17887C32.2585 1.09994 32.3994 1.02664 32.4671 0.958984H33.3974V8.67197H34.2093L35.4271 7.26807C35.5737 7.1102 35.6921 6.97489 35.7823 6.86212C35.8838 6.74936 35.9853 6.64787 36.0868 6.55766H35.1903V5.27217H38.9961V6.35469C38.6014 6.3998 38.2518 6.49564 37.9474 6.64223C37.6429 6.77755 37.3779 6.94106 37.1524 7.13275C36.9381 7.32445 36.7521 7.51051 36.5942 7.69093L35.5117 8.90877C35.6808 8.9877 35.8443 9.1061 36.0022 9.26397C36.1714 9.41056 36.3743 9.64173 36.6111 9.95746L37.7444 11.4459C37.8121 11.5249 37.8966 11.632 37.9981 11.7673C38.1109 11.9026 38.2349 12.0379 38.3702 12.1733C38.5056 12.2973 38.6521 12.4044 38.81 12.4946C38.9679 12.5848 39.1314 12.6299 39.3005 12.6299V13.7294H37.3554C36.9945 13.7294 36.6788 13.6053 36.4082 13.3573C36.1375 13.0979 35.8274 12.7314 35.4779 12.2578C35.2749 11.9872 35.0606 11.6997 34.8351 11.3952C34.6209 11.0795 34.4179 10.7863 34.2262 10.5156C34.0458 10.2337 33.8992 10.0138 33.7864 9.85598L33.3974 9.87289V11.0062C33.3974 11.164 33.3918 11.3896 33.3805 11.6827C33.3692 11.9646 33.3523 12.2353 33.3297 12.4946C33.5102 12.4721 33.7075 12.4608 33.9217 12.4608C34.136 12.4495 34.3051 12.4439 34.4292 12.4439V13.7294H29.9807Z" fill="#133629"/>
<path d="M44.5921 13.7294C44.5695 13.5715 44.5526 13.4418 44.5414 13.3404C44.5414 13.2276 44.5357 13.0979 44.5244 12.9513C44.1411 13.3347 43.7351 13.6053 43.3066 13.7632C42.8781 13.9211 42.444 14 42.0042 14C41.2825 14 40.7187 13.7858 40.3128 13.3573C39.9068 12.9288 39.7038 12.3931 39.7038 11.7504C39.7038 11.2091 39.8391 10.7468 40.1098 10.3634C40.3917 9.98002 40.7582 9.66992 41.2092 9.43312C41.6715 9.18504 42.179 8.99898 42.7315 8.87494C43.2953 8.73962 43.8591 8.66069 44.423 8.63814V7.75859C44.423 7.4654 44.3835 7.20041 44.3046 6.96361C44.2369 6.72681 44.1129 6.54075 43.9324 6.40543C43.7633 6.27012 43.5209 6.2081 43.2051 6.21937C42.9909 6.23065 42.7823 6.27576 42.5793 6.35469C42.3763 6.43362 42.2015 6.54639 42.0549 6.69298C42.1451 6.79447 42.2015 6.90723 42.2241 7.03127C42.2466 7.14403 42.2579 7.24552 42.2579 7.33573C42.2579 7.56125 42.1677 7.79805 41.9873 8.04613C41.8069 8.28294 41.5193 8.3957 41.1246 8.38442C40.7864 8.37315 40.527 8.25474 40.3466 8.02922C40.1662 7.80369 40.0759 7.5387 40.0759 7.23424C40.0759 6.78319 40.2338 6.39416 40.5496 6.06714C40.8766 5.72886 41.3107 5.4695 41.852 5.28908C42.3932 5.09738 42.9909 5.00153 43.6449 5.00153C44.6372 5.00153 45.404 5.26089 45.9453 5.7796C46.4978 6.28703 46.7741 7.10456 46.7741 8.23219C46.7741 8.61559 46.7741 8.9426 46.7741 9.21323C46.7741 9.48386 46.7684 9.75449 46.7571 10.0251C46.7571 10.2958 46.7571 10.6228 46.7571 11.0062C46.7571 11.164 46.7515 11.3896 46.7402 11.6827C46.729 11.9646 46.712 12.2353 46.6895 12.4946C46.8812 12.4721 47.0842 12.4608 47.2984 12.4608C47.5127 12.4495 47.6762 12.4439 47.7889 12.4439V13.7294H44.5921ZM44.406 9.83906C44.0903 9.87289 43.7915 9.92927 43.5096 10.0082C43.2277 10.0871 42.9796 10.1943 42.7653 10.3296C42.5624 10.4649 42.3989 10.6284 42.2748 10.8201C42.1621 11.0118 42.1057 11.226 42.1057 11.4628C42.117 11.7786 42.2184 12.0041 42.4101 12.1394C42.6018 12.2747 42.8217 12.3424 43.0698 12.3424C43.3292 12.3424 43.5716 12.286 43.7971 12.1733C44.0226 12.0605 44.2256 11.9139 44.406 11.7335C44.406 11.6207 44.406 11.5136 44.406 11.4121C44.406 11.2993 44.406 11.1866 44.406 11.0738C44.406 10.8708 44.406 10.6679 44.406 10.4649C44.406 10.2506 44.406 10.042 44.406 9.83906Z" fill="#133629"/>
<path d="M49.7073 14C49.3464 14 49.0476 13.8703 48.8108 13.611C48.5853 13.3516 48.4725 13.0415 48.4725 12.6807C48.4725 12.3198 48.5966 12.0097 48.8446 11.7504C49.0927 11.491 49.3803 11.3614 49.7073 11.3614C50.0568 11.3614 50.3444 11.491 50.5699 11.7504C50.8067 12.0097 50.9251 12.3198 50.9251 12.6807C50.9251 13.0415 50.8123 13.3516 50.5868 13.611C50.3726 13.8703 50.0794 14 49.7073 14Z" fill="#133629"/>
</svg>
