<svg width="19" height="17" viewBox="0 0 19 17" fill="none" xmlns="http://www.w3.org/2000/svg">
<g clip-path="url(#clip0_70_444)">
<path d="M5.999 16.4364C13.1215 16.4364 17.0165 10.5759 17.0165 5.49397C17.0165 5.32752 17.013 5.16181 17.0055 4.99686C17.7616 4.454 18.4188 3.77657 18.9371 3.00539C18.2433 3.31168 17.4966 3.51788 16.7134 3.61085C17.5128 3.13473 18.1266 2.38156 18.4162 1.4837C17.668 1.92421 16.8395 2.24437 15.9573 2.41722C15.2507 1.6697 14.2447 1.20215 13.1308 1.20215C10.9924 1.20215 9.25835 2.92447 9.25835 5.04747C9.25835 5.34926 9.29232 5.6428 9.35875 5.92438C6.14047 5.76354 3.28674 4.2332 1.37685 1.90621C1.0443 2.47455 0.85255 3.13475 0.85255 3.83918C0.85255 5.17346 1.53617 6.35136 2.57572 7.04045C1.94043 7.02095 1.34364 6.84775 0.822023 6.55945C0.821453 6.57558 0.821451 6.59132 0.821451 6.60856C0.821451 8.47109 2.1562 10.0261 3.92802 10.3785C3.60263 10.4666 3.26029 10.5139 2.90696 10.5139C2.65783 10.5139 2.41511 10.4895 2.17919 10.4445C2.67216 11.9726 4.10167 13.0846 5.79647 13.1156C4.47116 14.1473 2.80163 14.7618 0.987133 14.7618C0.674963 14.7618 0.366571 14.7442 0.0634766 14.7086C1.77721 15.7996 3.81212 16.4361 5.99921 16.4361" fill="#9B8957"/>
</g>
<defs>
<clipPath id="clip0_70_444">
<rect width="19" height="16" fill="white" transform="translate(0 0.5)"/>
</clipPath>
</defs>
</svg>
