<svg width="40" height="40" viewBox="0 0 40 40" fill="none" xmlns="http://www.w3.org/2000/svg">
<path d="M26.6667 11.6667C26.6667 15.3486 23.6819 18.3333 20 18.3333C16.3181 18.3333 13.3334 15.3486 13.3334 11.6667C13.3334 7.98477 16.3181 5 20 5C23.6819 5 26.6667 7.98477 26.6667 11.6667Z" fill="#DD7143" fill-opacity="0.3"/>
<path d="M26.6667 25H13.3334C9.65146 25 6.66669 27.9848 6.66669 31.6667C6.66669 33.5076 8.15907 35 10 35H30C31.841 35 33.3334 33.5076 33.3334 31.6667C33.3334 27.9848 30.3486 25 26.6667 25Z" fill="#DD7143" fill-opacity="0.3"/>
<path d="M26.6667 11.6667C26.6667 15.3486 23.6819 18.3333 20 18.3333C16.3181 18.3333 13.3334 15.3486 13.3334 11.6667C13.3334 7.98477 16.3181 5 20 5C23.6819 5 26.6667 7.98477 26.6667 11.6667Z" stroke="#DD7143" stroke-width="2" stroke-linecap="round" stroke-linejoin="round"/>
<path d="M26.6667 25H13.3334C9.65146 25 6.66669 27.9848 6.66669 31.6667C6.66669 33.5076 8.15907 35 10 35H30C31.841 35 33.3334 33.5076 33.3334 31.6667C33.3334 27.9848 30.3486 25 26.6667 25Z" stroke="#DD7143" stroke-width="2" stroke-linecap="round" stroke-linejoin="round"/>
</svg>
