<svg width="40" height="40" viewBox="0 0 40 40" fill="none" xmlns="http://www.w3.org/2000/svg">
<path d="M25 11.6667C25 15.3486 22.0152 18.3333 18.3333 18.3333C14.6514 18.3333 11.6667 15.3486 11.6667 11.6667C11.6667 7.98477 14.6514 5 18.3333 5C22.0152 5 25 7.98477 25 11.6667Z" fill="#DD7143" fill-opacity="0.3"/>
<path d="M28.3333 35C29 35 35 31.7594 35 27.2225C35 24.9541 33 23.3619 31 23.3338C30 23.3197 29 23.6578 28.3333 24.63C27.6667 23.6578 26.6494 23.3338 25.6667 23.3338C23.6667 23.3338 21.6667 24.9541 21.6667 27.2225C21.6667 31.7594 27.6667 35 28.3333 35Z" fill="#DD7143" fill-opacity="0.3"/>
<path d="M15 25H11.6667C7.98477 25 5 27.9848 5 31.6667C5 33.5076 6.49238 35 8.33333 35H18.3333M25 11.6667C25 15.3486 22.0152 18.3333 18.3333 18.3333C14.6514 18.3333 11.6667 15.3486 11.6667 11.6667C11.6667 7.98477 14.6514 5 18.3333 5C22.0152 5 25 7.98477 25 11.6667ZM28.3333 35C27.6667 35 21.6667 31.7594 21.6667 27.2225C21.6667 24.9541 23.6667 23.3338 25.6667 23.3338C26.6494 23.3338 27.6667 23.6578 28.3333 24.63C29 23.6578 30 23.3197 31 23.3338C33 23.3619 35 24.9541 35 27.2225C35 31.7594 29 35 28.3333 35Z" stroke="#DD7143" stroke-width="2" stroke-linecap="round" stroke-linejoin="round"/>
</svg>
