<svg width="216" height="210" viewBox="0 0 216 210" fill="none" xmlns="http://www.w3.org/2000/svg">
<g opacity="0.5">
<path d="M66.889 183.005C71.8833 175.715 81.8416 173.854 89.1314 178.849C96.4212 183.843 98.282 193.801 93.2877 201.091C88.2933 208.381 78.3351 210.242 71.0453 205.247C63.7555 200.253 61.8946 190.295 66.889 183.005Z" fill="white"/>
<path d="M185.014 10.5882C190.008 3.29841 199.967 1.43758 207.256 6.43193C214.546 11.4263 216.407 21.3845 211.413 28.6744C206.418 35.9642 196.46 37.825 189.17 32.8306C181.881 27.8363 180.02 17.878 185.014 10.5882Z" fill="white"/>
<path d="M4.12907 101.217C9.12341 93.9275 19.0817 92.0667 26.3715 97.061C33.6613 102.055 35.5221 112.014 30.5278 119.303C25.5334 126.593 15.5752 128.454 8.28536 123.46C0.995554 118.465 -0.865281 108.507 4.12907 101.217Z" fill="white"/>
<path d="M72.4031 10.4103C78.8021 1.07028 91.5612 -1.31391 100.901 5.08509C110.241 11.4841 112.625 24.2431 106.226 33.5832C99.8275 42.9233 87.0684 45.3074 77.7284 38.9084C68.3883 32.5094 66.0041 19.7504 72.4031 10.4103Z" fill="white"/>
<path d="M76.4919 178.097L83.2222 40.8833M26.579 98.5363L68.8963 20.1296M183.558 15.453L107.585 13.907M66.889 183.005C71.8833 175.715 81.8416 173.854 89.1314 178.849C96.4212 183.843 98.282 193.801 93.2877 201.091C88.2933 208.381 78.3351 210.242 71.0453 205.247C63.7555 200.253 61.8946 190.295 66.889 183.005ZM185.014 10.5882C190.008 3.29842 199.967 1.43758 207.256 6.43193C214.546 11.4263 216.407 21.3845 211.413 28.6744C206.418 35.9642 196.46 37.825 189.17 32.8306C181.881 27.8363 180.02 17.878 185.014 10.5882ZM4.12907 101.217C9.12341 93.9275 19.0817 92.0667 26.3715 97.061C33.6613 102.055 35.5221 112.014 30.5278 119.303C25.5334 126.593 15.5752 128.454 8.28536 123.46C0.995553 118.465 -0.865281 108.507 4.12907 101.217ZM72.4031 10.4103C78.8021 1.07028 91.5612 -1.31391 100.901 5.08509C110.241 11.4841 112.625 24.2431 106.226 33.5832C99.8275 42.9233 87.0684 45.3074 77.7284 38.9084C68.3883 32.5094 66.0041 19.7504 72.4031 10.4103Z" stroke="white" stroke-width="2"/>
</g>
</svg>
