<svg width="237" height="185" viewBox="0 0 237 185" fill="none" xmlns="http://www.w3.org/2000/svg">
<g opacity="0.2">
<path d="M210.693 31.8268C202.836 35.8716 193.188 32.7816 189.143 24.9252C185.099 17.0687 188.189 7.42078 196.045 3.37599C203.902 -0.668804 213.549 2.42119 217.594 10.2777C221.639 18.1342 218.549 27.7821 210.693 31.8268Z" fill="white"/>
<path d="M24.8729 127.493C17.0164 131.538 7.3685 128.448 3.32371 120.592C-0.721075 112.735 2.36891 103.087 10.2254 99.0423C18.0819 94.9975 27.7298 98.0875 31.7746 105.944C35.8194 113.801 32.7294 123.448 24.8729 127.493Z" fill="white"/>
<path d="M227.1 133.605C219.243 137.65 209.595 134.56 205.55 126.703C201.506 118.847 204.596 109.199 212.452 105.154C220.309 101.109 229.957 104.199 234.001 112.056C238.046 119.912 234.956 129.56 227.1 133.605Z" fill="white"/>
<path d="M123.899 181.112C113.833 186.295 101.472 182.336 96.2894 172.27C91.107 162.203 95.0661 149.842 105.132 144.66C115.198 139.477 127.56 143.436 132.742 153.503C137.924 163.569 133.965 175.93 123.899 181.112Z" fill="white"/>
<path d="M199.911 31.5869L128.844 149.156M206.068 125.306L131.6 174.223M28.4637 123.903L94.595 161.332M210.693 31.8268C202.836 35.8716 193.188 32.7816 189.143 24.9252C185.099 17.0687 188.189 7.42078 196.045 3.37599C203.902 -0.668804 213.549 2.42119 217.594 10.2777C221.639 18.1342 218.549 27.7821 210.693 31.8268ZM24.8729 127.493C17.0164 131.538 7.3685 128.448 3.32371 120.592C-0.721075 112.735 2.36892 103.087 10.2254 99.0423C18.0819 94.9975 27.7298 98.0875 31.7746 105.944C35.8194 113.801 32.7294 123.448 24.8729 127.493ZM227.1 133.605C219.243 137.65 209.595 134.56 205.55 126.703C201.506 118.847 204.596 109.199 212.452 105.154C220.309 101.109 229.957 104.199 234.001 112.056C238.046 119.912 234.956 129.56 227.1 133.605ZM123.899 181.112C113.833 186.295 101.472 182.336 96.2894 172.27C91.107 162.203 95.0661 149.842 105.132 144.66C115.198 139.477 127.56 143.436 132.742 153.503C137.924 163.569 133.965 175.93 123.899 181.112Z" stroke="white" stroke-width="2"/>
</g>
</svg>
