<svg width="237" height="185" viewBox="0 0 237 185" fill="none" xmlns="http://www.w3.org/2000/svg">
<g opacity="0.2">
<path d="M210.693 153.173C202.836 149.128 193.188 152.218 189.143 160.075C185.099 167.931 188.189 177.579 196.045 181.624C203.902 185.669 213.549 182.579 217.594 174.722C221.639 166.866 218.549 157.218 210.693 153.173Z" fill="white"/>
<path d="M24.8729 57.5068C17.0164 53.462 7.3685 56.552 3.32371 64.4085C-0.721075 72.265 2.36891 81.9129 10.2254 85.9577C18.0819 90.0025 27.7298 86.9125 31.7746 79.056C35.8194 71.1995 32.7294 61.5516 24.8729 57.5068Z" fill="white"/>
<path d="M227.1 51.3949C219.243 47.3501 209.595 50.4401 205.55 58.2966C201.506 66.1531 204.596 75.801 212.452 79.8458C220.309 83.8906 229.957 80.8006 234.001 72.9441C238.046 65.0876 234.956 55.4397 227.1 51.3949Z" fill="white"/>
<path d="M123.899 3.88759C113.833 -1.2948 101.472 2.66425 96.2894 12.7304C91.107 22.7965 95.0661 35.1579 105.132 40.3403C115.198 45.5226 127.56 41.5636 132.742 31.4975C137.924 21.4313 133.965 9.06998 123.899 3.88759Z" fill="white"/>
<path d="M199.911 153.413L128.844 35.8438M206.068 59.6935L131.6 10.7768M28.4637 61.0973L94.595 23.6679M210.693 153.173C202.836 149.128 193.188 152.218 189.143 160.075C185.099 167.931 188.189 177.579 196.045 181.624C203.902 185.669 213.549 182.579 217.594 174.722C221.639 166.866 218.549 157.218 210.693 153.173ZM24.8729 57.5068C17.0164 53.462 7.3685 56.552 3.32371 64.4085C-0.721075 72.265 2.36892 81.9129 10.2254 85.9577C18.0819 90.0025 27.7298 86.9125 31.7746 79.056C35.8194 71.1995 32.7294 61.5516 24.8729 57.5068ZM227.1 51.3949C219.243 47.3501 209.595 50.4401 205.55 58.2966C201.506 66.1531 204.596 75.801 212.452 79.8458C220.309 83.8906 229.957 80.8006 234.001 72.9441C238.046 65.0876 234.956 55.4397 227.1 51.3949ZM123.899 3.88759C113.833 -1.2948 101.472 2.66426 96.2894 12.7304C91.107 22.7965 95.0661 35.1579 105.132 40.3403C115.198 45.5226 127.56 41.5636 132.742 31.4975C137.924 21.4313 133.965 9.06998 123.899 3.88759Z" stroke="white" stroke-width="2"/>
</g>
</svg>
