<svg width="132" height="243" viewBox="0 0 132 243" fill="none" xmlns="http://www.w3.org/2000/svg">
<g opacity="0.5">
<path d="M33 17C33 25.8366 25.8366 33 17 33C8.16344 33 1 25.8366 1 17C1 8.16344 8.16344 1 17 1C25.8366 1 33 8.16344 33 17Z" fill="white"/>
<path d="M33 226C33 234.837 25.8366 242 17 242C8.16344 242 1 234.837 1 226C1 217.163 8.16344 210 17 210C25.8366 210 33 217.163 33 226Z" fill="white"/>
<path d="M131 49C131 57.8366 123.837 65 115 65C106.163 65 99 57.8366 99 49C99 40.1634 106.163 33 115 33C123.837 33 131 40.1634 131 49Z" fill="white"/>
<path d="M126 162.5C126 173.822 116.822 183 105.5 183C94.1782 183 85 173.822 85 162.5C85 151.178 94.1782 142 105.5 142C116.822 142 126 151.178 126 162.5Z" fill="white"/>
<path d="M27.8517 26.4759L99.8517 143.476M113.995 63.9003L123.4 152.5M31.4513 221.164L95 179.5M33 17C33 25.8366 25.8366 33 17 33C8.16344 33 1 25.8366 1 17C1 8.16344 8.16344 1 17 1C25.8366 1 33 8.16344 33 17ZM33 226C33 234.837 25.8366 242 17 242C8.16344 242 1 234.837 1 226C1 217.163 8.16344 210 17 210C25.8366 210 33 217.163 33 226ZM131 49C131 57.8366 123.837 65 115 65C106.163 65 99 57.8366 99 49C99 40.1634 106.163 33 115 33C123.837 33 131 40.1634 131 49ZM126 162.5C126 173.822 116.822 183 105.5 183C94.1782 183 85 173.822 85 162.5C85 151.178 94.1782 142 105.5 142C116.822 142 126 151.178 126 162.5Z" stroke="white" stroke-width="2"/>
</g>
</svg>
