<svg width="237" height="185" viewBox="0 0 237 185" fill="none" xmlns="http://www.w3.org/2000/svg">
<g opacity="0.5">
<path d="M210.693 31.7746C202.836 35.8194 193.188 32.7294 189.143 24.8729C185.099 17.0164 188.189 7.36853 196.045 3.32374C203.902 -0.72105 213.549 2.36894 217.594 10.2254C221.639 18.0819 218.549 27.7298 210.693 31.7746Z" fill="white"/>
<path d="M24.8729 127.441C17.0164 131.486 7.3685 128.396 3.32371 120.539C-0.721075 112.683 2.36891 103.035 10.2254 98.9901C18.0819 94.9453 27.7298 98.0353 31.7746 105.892C35.8194 113.748 32.7294 123.396 24.8729 127.441Z" fill="white"/>
<path d="M227.1 133.553C219.243 137.598 209.595 134.508 205.55 126.651C201.506 118.795 204.596 109.147 212.452 105.102C220.309 101.057 229.957 104.147 234.001 112.004C238.046 119.86 234.956 129.508 227.1 133.553Z" fill="white"/>
<path d="M123.899 181.06C113.833 186.243 101.472 182.283 96.2894 172.217C91.107 162.151 95.0661 149.79 105.132 144.608C115.198 139.425 127.56 143.384 132.742 153.45C137.924 163.516 133.965 175.878 123.899 181.06Z" fill="white"/>
<path d="M199.911 31.5347L128.844 149.104M206.068 125.254L131.6 174.171M28.4637 123.85L94.595 161.28M210.693 31.7746C202.836 35.8194 193.188 32.7294 189.143 24.8729C185.099 17.0164 188.189 7.36853 196.045 3.32374C203.902 -0.72105 213.549 2.36894 217.594 10.2254C221.639 18.0819 218.549 27.7298 210.693 31.7746ZM24.8729 127.441C17.0164 131.486 7.3685 128.396 3.32371 120.539C-0.721075 112.683 2.36892 103.035 10.2254 98.9901C18.0819 94.9453 27.7298 98.0353 31.7746 105.892C35.8194 113.748 32.7294 123.396 24.8729 127.441ZM227.1 133.553C219.243 137.598 209.595 134.508 205.55 126.651C201.506 118.795 204.596 109.147 212.452 105.102C220.309 101.057 229.957 104.147 234.001 112.004C238.046 119.86 234.956 129.508 227.1 133.553ZM123.899 181.06C113.833 186.243 101.472 182.283 96.2894 172.217C91.107 162.151 95.0661 149.79 105.132 144.608C115.198 139.425 127.56 143.384 132.742 153.45C137.924 163.516 133.965 175.878 123.899 181.06Z" stroke="white" stroke-width="2"/>
</g>
</svg>
