<svg width="238" height="185" viewBox="0 0 238 185" fill="none" xmlns="http://www.w3.org/2000/svg">
<g opacity="0.2">
<path d="M27.0833 31.8268C34.9398 35.8716 44.5877 32.7816 48.6325 24.9252C52.6773 17.0687 49.5873 7.42078 41.7308 3.37599C33.8743 -0.668804 24.2264 2.42119 20.1816 10.2777C16.1368 18.1342 19.2268 27.7821 27.0833 31.8268Z" fill="white"/>
<path d="M212.903 127.493C220.759 131.538 230.407 128.448 234.452 120.592C238.497 112.735 235.407 103.087 227.55 99.0423C219.694 94.9975 210.046 98.0875 206.001 105.944C201.957 113.801 205.047 123.448 212.903 127.493Z" fill="white"/>
<path d="M10.6763 133.605C18.5328 137.65 28.1807 134.56 32.2254 126.703C36.2702 118.847 33.1802 109.199 25.3238 105.154C17.4673 101.109 7.81938 104.199 3.77459 112.056C-0.270203 119.912 2.81979 129.56 10.6763 133.605Z" fill="white"/>
<path d="M113.877 181.112C123.943 186.295 136.304 182.336 141.486 172.27C146.669 162.203 142.71 149.842 132.644 144.66C122.578 139.477 110.216 143.436 105.034 153.503C99.8514 163.569 103.81 175.93 113.877 181.112Z" fill="white"/>
<path d="M37.8648 31.5869L108.931 149.156M31.7077 125.306L106.176 174.223M209.312 123.903L143.181 161.332M27.0833 31.8268C34.9398 35.8716 44.5877 32.7816 48.6325 24.9252C52.6773 17.0687 49.5873 7.42078 41.7308 3.37599C33.8743 -0.668804 24.2264 2.42119 20.1816 10.2777C16.1368 18.1342 19.2268 27.7821 27.0833 31.8268ZM212.903 127.493C220.759 131.538 230.407 128.448 234.452 120.592C238.497 112.735 235.407 103.087 227.55 99.0423C219.694 94.9975 210.046 98.0875 206.001 105.944C201.957 113.801 205.047 123.448 212.903 127.493ZM10.6763 133.605C18.5328 137.65 28.1807 134.56 32.2254 126.703C36.2702 118.847 33.1802 109.199 25.3238 105.154C17.4673 101.109 7.81938 104.199 3.77459 112.056C-0.270204 119.912 2.81979 129.56 10.6763 133.605ZM113.877 181.112C123.943 186.295 136.304 182.336 141.486 172.27C146.669 162.203 142.71 149.842 132.644 144.66C122.578 139.477 110.216 143.436 105.034 153.503C99.8514 163.569 103.81 175.93 113.877 181.112Z" stroke="white" stroke-width="2"/>
</g>
</svg>
