<svg width="40" height="40" viewBox="0 0 40 40" fill="none" xmlns="http://www.w3.org/2000/svg">
<path d="M3.33334 24.1667C3.33334 20.2838 3.33334 18.3424 3.96768 16.811C4.81346 14.7691 6.43575 13.1468 8.47765 12.301C10.0091 11.6667 11.9505 11.6667 15.8333 11.6667H24.1667C26.8899 11.6667 28.6581 11.6667 29.9997 11.8855C30.571 11.9787 31.065 12.1115 31.5224 12.301C33.5643 13.1468 35.1866 14.7691 36.0323 16.811C36.6667 18.3424 36.6667 20.2838 36.6667 24.1667C36.6667 26.3828 36.6667 28.3243 36.0323 29.8557C35.1866 31.8976 33.5643 33.5199 31.5224 34.3657C29.9909 35 28.0495 35 24.1667 35H15.8333C11.9505 35 10.0091 35 8.47765 34.3657C6.43575 33.5199 4.81346 31.8976 3.96768 29.8557C3.33334 28.3243 3.33334 26.3828 3.33334 24.1667Z" fill="#DD7143" fill-opacity="0.3"/>
<path d="M3.33334 24.1667V18.3333C3.33334 13.6662 3.33334 11.3327 4.24162 9.55008C5.04057 7.98206 6.31541 6.70722 7.88342 5.90828C9.66602 5 11.9996 5 16.6667 5H22.5C24.8297 5 25.9946 5 26.9134 5.3806C28.1386 5.88807 29.1119 6.86144 29.6194 8.08658C29.965 8.92085 29.9968 9.95791 29.9997 11.8855M3.33334 24.1667C3.33334 26.3828 3.33334 28.3243 3.96768 29.8557C4.81346 31.8976 6.43575 33.5199 8.47765 34.3657C10.0091 35 11.9505 35 15.8333 35H24.1667C28.0495 35 29.9909 35 31.5224 34.3657C33.5643 33.5199 35.1866 31.8976 36.0323 29.8557C36.6667 28.3243 36.6667 26.3828 36.6667 24.1667C36.6667 20.2838 36.6667 18.3424 36.0323 16.811C35.1866 14.7691 33.5643 13.1468 31.5224 12.301C31.065 12.1116 30.571 11.9787 29.9997 11.8855M3.33334 24.1667C3.33334 20.2838 3.33334 18.3424 3.96768 16.811C4.81346 14.7691 6.43575 13.1468 8.47765 12.301C10.0091 11.6667 11.9505 11.6667 15.8333 11.6667H24.1667C26.8899 11.6667 28.6581 11.6667 29.9997 11.8855M23.3333 20H28.3333" stroke="#DD7143" stroke-width="2" stroke-linecap="round" stroke-linejoin="round"/>
</svg>
